<?xml version="1.0" standalone="no"?>
<!DOCTYPE svg PUBLIC "-//W3C//DTD SVG 20010904//EN"
 "http://www.w3.org/TR/2001/REC-SVG-20010904/DTD/svg10.dtd">
<svg version="1.0" xmlns="http://www.w3.org/2000/svg"
 width="689.000000pt" height="689.000000pt" viewBox="0 0 689.000000 689.000000"
 preserveAspectRatio="xMidYMid meet">
<metadata>
Created by potrace 1.14, written by Peter Selinger 2001-2017
</metadata>
<g transform="translate(0.000000,689.000000) scale(0.100000,-0.100000)"
fill="#000000" stroke="none">
<path d="M3470 5856 c0 -2 7 -7 16 -10 8 -3 12 -2 9 4 -6 10 -25 14 -25 6z"/>
<path d="M3296 5792 c-2 -4 -1 -14 4 -22 7 -11 9 -9 7 8 -1 24 -3 26 -11 14z"/>
<path d="M3446 5788 c3 -5 10 -6 15 -3 13 9 11 12 -6 12 -8 0 -12 -4 -9 -9z"/>
<path d="M3336 5772 c-3 -5 1 -9 9 -9 8 0 12 4 9 9 -3 4 -7 8 -9 8 -2 0 -6 -4
-9 -8z"/>
<path d="M3755 5770 c-3 -5 -1 -10 4 -10 6 0 11 5 11 10 0 6 -2 10 -4 10 -3 0
-8 -4 -11 -10z"/>
<path d="M3135 5750 c-3 -5 -1 -10 4 -10 6 0 11 5 11 10 0 6 -2 10 -4 10 -3 0
-8 -4 -11 -10z"/>
<path d="M3626 5748 c3 -5 10 -6 15 -3 13 9 11 12 -6 12 -8 0 -12 -4 -9 -9z"/>
<path d="M3355 5740 c-4 -6 -10 -8 -14 -5 -5 2 -17 -5 -27 -18 -19 -22 -19
-22 2 -4 11 9 23 15 26 12 3 -3 11 1 18 10 7 8 10 15 7 15 -3 0 -9 -5 -12 -10z"/>
<path d="M3469 5733 c-13 -16 -12 -17 4 -4 16 13 21 21 13 21 -2 0 -10 -8 -17
-17z"/>
<path d="M3589 5733 c-13 -16 -12 -17 4 -4 16 13 21 21 13 21 -2 0 -10 -8 -17
-17z"/>
<path d="M3060 5736 c0 -2 8 -10 18 -17 15 -13 16 -12 3 4 -13 16 -21 21 -21
13z"/>
<path d="M3235 5720 c10 -11 20 -20 23 -20 3 0 -3 9 -13 20 -10 11 -20 20 -23
20 -3 0 3 -9 13 -20z"/>
<path d="M3399 5723 c-12 -16 -12 -17 2 -6 9 7 20 9 24 5 5 -4 5 -1 1 6 -9 16
-11 15 -27 -5z"/>
<path d="M3546 5732 c-3 -5 1 -9 9 -9 8 0 12 4 9 9 -3 4 -7 8 -9 8 -2 0 -6 -4
-9 -8z"/>
<path d="M3275 5720 c-3 -5 -3 -10 1 -10 4 0 -1 -9 -11 -20 -17 -18 -17 -20
-2 -14 9 3 17 9 18 13 0 3 2 14 4 24 4 19 -1 22 -10 7z"/>
<path d="M3509 5707 c7 -7 5 -15 -7 -24 -16 -13 -15 -14 2 -5 23 12 30 39 10
39 -10 0 -11 -4 -5 -10z"/>
<path d="M3335 5699 c-4 -6 -5 -12 -2 -15 2 -3 7 2 10 11 7 17 1 20 -8 4z"/>
<path d="M3419 5708 c-6 -22 -5 -39 3 -45 6 -3 8 -1 4 5 -3 5 0 13 6 15 10 4
10 6 0 6 -7 1 -10 6 -7 11 3 6 4 10 1 10 -3 0 -6 -1 -7 -2z"/>
<path d="M3453 5693 c0 -8 6 -9 19 -2 10 5 18 11 18 12 0 2 -8 3 -18 3 -10 0
-19 -6 -19 -13z"/>
<path d="M2986 5692 c-3 -5 1 -9 9 -9 8 0 12 4 9 9 -3 4 -7 8 -9 8 -2 0 -6 -4
-9 -8z"/>
<path d="M3066 5692 c-3 -5 1 -9 9 -9 8 0 12 4 9 9 -3 4 -7 8 -9 8 -2 0 -6 -4
-9 -8z"/>
<path d="M3210 5696 c0 -2 7 -7 16 -10 8 -3 12 -2 9 4 -6 10 -25 14 -25 6z"/>
<path d="M3380 5680 c-6 -11 -8 -20 -6 -20 3 0 10 9 16 20 6 11 8 20 6 20 -3
0 -10 -9 -16 -20z"/>
<path d="M3355 5679 c-4 -6 -5 -12 -2 -15 2 -3 7 2 10 11 7 17 1 20 -8 4z"/>
<path d="M3634 5676 c1 -8 5 -18 8 -22 4 -3 5 1 4 10 -1 8 -5 18 -8 22 -4 3
-5 -1 -4 -10z"/>
<path d="M3105 5669 c-3 -4 2 -6 10 -5 21 3 28 13 10 13 -9 0 -18 -4 -20 -8z"/>
<path d="M3473 5654 c0 -17 2 -22 7 -13 5 6 6 18 3 26 -8 19 -10 16 -10 -13z"/>
<path d="M3770 5670 c0 -5 5 -10 11 -10 5 0 7 5 4 10 -3 6 -8 10 -11 10 -2 0
-4 -4 -4 -10z"/>
<path d="M2996 5657 c3 -10 9 -15 12 -12 3 3 0 11 -7 18 -10 9 -11 8 -5 -6z"/>
<path d="M3055 5659 c-4 -6 -5 -12 -2 -15 2 -3 7 2 10 11 7 17 1 20 -8 4z"/>
<path d="M3233 5649 c-2 -23 3 -25 10 -4 4 8 3 16 -1 19 -4 3 -9 -4 -9 -15z"/>
<path d="M3150 5649 c0 -5 5 -7 10 -4 6 3 10 8 10 11 0 2 -4 4 -10 4 -5 0 -10
-5 -10 -11z"/>
<path d="M3204 5645 c-4 -8 -10 -15 -16 -15 -5 0 -6 5 -2 12 4 7 3 8 -5 4 -12
-8 -6 -26 9 -26 5 0 14 9 20 20 6 11 8 20 5 20 -3 0 -8 -7 -11 -15z"/>
<path d="M3390 5645 c0 -8 2 -15 4 -15 2 0 6 7 10 15 3 8 1 15 -4 15 -6 0 -10
-7 -10 -15z"/>
<path d="M3560 5650 c8 -5 20 -10 25 -10 6 0 3 5 -5 10 -8 5 -19 10 -25 10 -5
0 -3 -5 5 -10z"/>
<path d="M3072 5637 c-8 -10 -6 -13 7 -13 11 0 17 6 14 13 -3 7 -6 13 -8 13
-1 0 -7 -6 -13 -13z"/>
<path d="M3255 5641 c-7 -12 12 -24 25 -16 6 3 10 12 9 18 0 9 -2 9 -6 0 -2
-7 -9 -13 -14 -13 -6 0 -7 5 -4 10 3 6 4 10 1 10 -3 0 -7 -4 -11 -9z"/>
<path d="M3415 5641 c-7 -12 12 -24 25 -16 6 3 10 12 9 18 0 9 -2 9 -6 0 -2
-7 -9 -13 -14 -13 -6 0 -7 5 -4 10 3 6 4 10 1 10 -3 0 -7 -4 -11 -9z"/>
<path d="M3497 5644 c-10 -11 3 -24 23 -24 23 0 35 16 19 26 -8 4 -9 3 -5 -4
5 -8 -1 -12 -14 -12 -12 0 -18 5 -15 10 7 11 2 13 -8 4z"/>
<path d="M3026 5632 c-3 -5 1 -9 9 -9 8 0 12 4 9 9 -3 4 -7 8 -9 8 -2 0 -6 -4
-9 -8z"/>
<path d="M3339 5626 c10 -12 8 -17 -8 -26 -12 -6 -21 -18 -22 -28 0 -10 -3
-12 -6 -5 -3 10 -10 10 -24 2 -20 -10 -39 -5 -39 11 0 5 8 7 18 4 16 -5 16 -5
0 9 -10 8 -16 16 -13 18 2 3 -6 6 -18 6 -19 2 -19 0 -5 -8 10 -5 14 -17 11
-29 -3 -12 0 -20 6 -20 7 0 9 -5 6 -10 -4 -6 -11 -8 -16 -4 -6 3 -19 -2 -30
-12 -11 -10 -19 -12 -19 -6 0 7 9 17 20 24 11 7 20 17 20 22 0 4 -6 3 -14 -3
-10 -9 -15 -8 -19 3 -4 10 2 16 16 19 22 4 22 4 1 6 -12 0 -28 -7 -35 -16 -8
-9 -9 -14 -3 -10 7 4 14 0 18 -8 6 -18 1 -19 -25 -4 -11 5 -17 14 -14 20 4 5
-1 12 -9 15 -9 3 -13 10 -10 15 3 5 0 9 -5 9 -17 0 -13 -18 7 -29 9 -6 13 -11
8 -11 -5 0 -3 -6 3 -14 12 -15 4 -49 -9 -41 -5 3 -11 1 -15 -5 -3 -5 -12 -10
-18 -10 -7 1 -1 10 13 21 22 19 23 22 9 32 -9 7 -17 15 -17 20 -2 9 -12 11
-19 4 -3 -3 4 -11 16 -19 20 -12 20 -13 -6 -40 -20 -21 -33 -26 -52 -22 l-26
6 25 -14 c21 -12 26 -12 33 0 7 11 12 11 27 -3 14 -12 20 -13 26 -4 5 8 3 10
-6 4 -8 -5 -11 -3 -8 6 3 8 10 15 16 15 7 1 17 2 23 3 5 0 8 5 4 10 -3 5 -1
12 5 16 5 3 10 2 10 -4 0 -5 3 -17 6 -26 4 -9 3 -15 -2 -14 -20 3 -34 -2 -34
-12 0 -8 5 -8 15 1 12 10 15 10 15 -1 0 -11 2 -11 10 1 9 13 10 13 10 0 0 -13
1 -13 10 0 9 13 10 13 10 0 1 -9 6 -6 16 10 8 14 13 17 10 8 -7 -22 13 -35 25
-17 7 12 9 11 9 -1 0 -13 1 -13 10 0 9 13 10 13 10 0 1 -12 3 -11 11 3 5 9 15
17 21 17 7 0 7 -4 -1 -13 -8 -10 -7 -14 4 -14 8 0 12 3 10 7 -2 3 5 7 16 7 10
1 19 -4 19 -10 1 -7 7 -1 16 13 14 23 14 23 9 3 -4 -14 -2 -23 4 -23 6 0 10 3
10 8 -3 20 2 30 16 28 21 -3 31 -16 12 -16 -9 0 -17 -4 -17 -10 0 -11 22 -9
30 2 3 4 11 -1 18 -12 11 -18 10 -19 -11 -11 -28 11 -38 11 -59 0 -11 -6 -19
-5 -23 1 -5 8 -11 8 -20 0 -10 -8 -15 -8 -20 0 -5 8 -10 8 -20 0 -7 -6 -15 -7
-18 -3 -3 5 -47 8 -99 7 -55 -1 -99 3 -107 10 -11 8 -13 8 -8 -1 5 -8 -8 -11
-45 -9 -29 2 -64 0 -78 -4 -23 -6 -25 -11 -24 -57 1 -27 5 -61 9 -74 5 -18 4
-21 -4 -9 -9 13 -11 13 -11 -1 0 -9 -7 -22 -15 -29 -11 -9 -12 -16 -5 -25 6
-7 7 -15 3 -17 -4 -3 -2 -3 5 -2 6 2 12 -1 12 -7 0 -6 5 -7 10 -4 23 14 4 -37
-31 -80 -9 -11 -15 -33 -14 -50 0 -16 -6 -39 -14 -50 -15 -18 -15 -19 2 -6 16
13 17 10 14 -27 -2 -23 0 -39 5 -36 4 3 8 -1 8 -10 0 -14 -8 -14 -87 -1 -32 5
-54 -17 -130 -131 -77 -115 -465 -671 -526 -753 -48 -66 -56 -98 -41 -170 14
-68 4 -83 -36 -53 -40 30 -55 28 -82 -10 -12 -18 -26 -37 -31 -43 -4 -5 -47
-64 -94 -130 -274 -383 -343 -478 -397 -552 -34 -45 -77 -105 -96 -133 -19
-29 -45 -62 -56 -74 -29 -31 -52 -96 -33 -96 5 0 9 -4 9 -10 0 -5 13 -31 28
-57 16 -27 27 -54 24 -61 -2 -7 0 -11 5 -10 4 2 10 -2 12 -7 2 -6 11 -15 20
-22 9 -7 12 -13 8 -13 -4 0 4 -17 18 -37 14 -21 25 -41 25 -46 0 -5 7 -15 15
-24 8 -8 13 -18 10 -23 -3 -4 2 -10 10 -14 8 -3 15 -15 15 -26 0 -12 4 -19 9
-15 8 4 26 -29 23 -45 0 -3 6 -9 14 -13 8 -5 12 -12 9 -17 -3 -4 2 -11 11 -14
8 -3 12 -10 9 -16 -3 -5 -1 -10 5 -10 6 0 9 -4 6 -9 -3 -5 1 -12 10 -15 9 -4
14 -9 11 -12 -3 -4 5 -24 19 -45 13 -21 24 -41 24 -44 0 -3 5 -11 10 -18 22
-25 90 -137 90 -147 0 -5 6 -10 13 -10 7 0 18 -9 25 -20 7 -11 19 -20 28 -20
9 0 12 -5 8 -12 -5 -7 -3 -8 6 -3 7 4 16 2 21 -6 6 -10 9 -10 9 -2 0 9 7 10
26 3 14 -6 29 -8 34 -5 5 3 11 -1 14 -7 4 -7 4 -2 2 10 -4 23 -4 23 14 7 17
-16 20 -16 26 -2 3 8 12 18 20 21 10 4 13 2 7 -7 -4 -7 3 -5 17 4 14 9 27 25
29 35 1 11 13 33 25 49 34 45 38 73 15 116 -10 21 -19 46 -19 56 0 15 286 462
355 557 l21 27 800 3 c441 2 806 6 811 9 16 10 53 85 53 107 0 10 -25 71 -55
135 -30 65 -55 119 -55 121 0 3 -33 75 -74 162 -40 86 -84 180 -96 207 -44 99
-164 360 -167 364 -2 3 -8 0 -13 -5 -18 -18 -25 -91 -23 -264 l1 -175 -409 -2
c-225 -1 -409 0 -409 2 0 3 33 65 74 137 97 176 101 182 272 483 82 143 155
272 163 287 8 15 19 25 24 21 6 -4 7 -1 1 8 -5 8 -9 38 -10 68 0 46 1 51 12
36 8 -10 11 -23 8 -29 -3 -6 5 1 18 17 13 15 27 27 30 27 11 0 2 -29 -15 -48
-9 -10 -17 -22 -17 -27 0 -5 7 0 15 11 14 18 14 17 15 -14 0 -19 9 -47 21 -63
11 -16 17 -29 12 -29 -4 0 0 -5 10 -11 9 -5 17 -14 17 -18 0 -5 35 -62 78
-127 77 -117 249 -388 449 -707 134 -214 222 -354 324 -515 46 -73 91 -144 99
-157 76 -125 238 -374 260 -399 15 -17 35 -45 44 -63 9 -17 24 -38 35 -45 10
-7 18 -15 18 -18 0 -3 8 -31 17 -62 l16 -57 -30 -49 c-16 -27 -30 -55 -30 -61
0 -19 71 -82 84 -74 6 4 4 -2 -4 -12 -14 -17 -13 -18 7 -13 12 3 24 1 26 -6 3
-6 17 -12 32 -14 16 -1 34 -7 42 -13 11 -9 17 -8 29 7 9 10 13 14 10 8 -8 -17
41 -14 55 2 9 11 16 10 42 -8 25 -18 29 -19 24 -5 -3 9 -1 19 6 23 7 4 9 4 5
-1 -4 -4 -2 -17 4 -29 6 -11 7 -18 3 -14 -5 4 -15 2 -23 -5 -11 -8 -14 -8 -9
0 4 6 3 15 -3 18 -6 4 -9 1 -8 -6 2 -6 -3 -14 -11 -17 -9 -3 -11 0 -6 8 6 9 3
9 -14 0 -18 -9 -21 -30 -5 -30 3 0 2 5 -2 12 -5 8 -2 9 10 5 10 -4 19 -7 22
-7 2 0 2 -6 0 -12 -1 -7 -1 -10 2 -5 2 4 12 12 22 17 16 8 18 6 15 -15 -1 -14
2 -25 6 -25 5 0 9 8 9 17 0 15 2 14 16 -3 8 -10 13 -14 10 -7 -4 6 -2 15 4 18
6 4 10 3 9 -2 -3 -19 2 -30 16 -30 12 0 12 3 2 15 -10 13 -9 14 11 3 17 -9 22
-9 22 1 0 9 3 9 10 -2 6 -9 13 -11 18 -5 4 6 19 10 33 10 21 1 27 -4 27 -21 0
-15 -6 -21 -17 -19 -9 2 -18 4 -21 4 -3 1 2 6 10 11 12 7 11 9 -6 8 -11 -1
-21 -10 -21 -20 -2 -24 15 -32 34 -16 14 11 15 10 9 -12 -5 -19 -3 -18 12 8
10 18 21 30 24 26 4 -3 -1 -18 -10 -32 -9 -15 -12 -23 -5 -19 6 4 13 2 15 -5
3 -7 7 -5 11 6 4 11 3 15 -4 10 -7 -4 -10 -1 -7 7 3 8 12 13 20 11 9 -1 21 5
28 13 7 8 18 15 24 15 6 0 -4 -14 -22 -31 -18 -17 -31 -34 -27 -37 3 -3 12 4
21 16 8 12 20 22 25 22 6 0 1 -13 -10 -29 -12 -16 -21 -33 -21 -37 0 -5 12 9
26 29 14 21 28 36 31 33 3 -3 -4 -17 -14 -33 -25 -36 -38 -60 -28 -51 4 4 15
2 23 -5 11 -8 14 -8 9 0 -4 6 -2 15 4 18 5 4 8 13 5 20 -6 17 23 57 35 49 6
-3 3 -11 -7 -18 -9 -7 -14 -18 -10 -24 9 -15 26 -16 26 -1 0 5 -4 7 -10 4 -5
-3 -10 -2 -10 3 0 8 22 22 35 22 2 0 2 -12 0 -28 -2 -15 0 -31 3 -37 4 -5 7
-14 7 -20 0 -18 35 -22 35 -4 0 8 -5 8 -15 -1 -8 -7 -15 -9 -15 -4 0 11 50 54
63 54 6 0 3 -8 -6 -18 -15 -16 -15 -21 -2 -38 8 -10 15 -14 15 -9 0 6 -5 16
-12 23 -9 9 -9 12 0 12 6 0 16 -8 21 -17 6 -10 11 -13 11 -8 0 6 -5 16 -12 23
-14 14 -10 19 16 24 10 1 21 -3 23 -10 3 -8 -2 -10 -14 -6 -11 4 -14 3 -7 -3
6 -4 14 -15 17 -23 4 -12 6 -11 6 3 1 10 5 16 11 12 5 -3 6 -13 3 -23 -5 -14
-3 -15 7 -5 11 10 11 15 0 28 -9 11 -10 19 -2 27 13 13 42 4 42 -13 0 -8 -4
-8 -15 1 -8 7 -15 8 -15 4 0 -13 39 -36 50 -29 5 3 11 1 14 -4 4 -5 -3 -13
-15 -16 -11 -4 -18 -9 -16 -12 3 -2 15 0 26 6 27 15 17 44 -13 35 -18 -6 -19
-5 -9 8 11 12 9 17 -10 27 -13 7 -31 13 -40 15 -23 3 -49 40 -41 60 5 12 -1
15 -24 13 -17 -1 -28 -5 -26 -9 2 -4 0 -10 -6 -13 -6 -4 -9 -1 -8 6 2 8 -7 13
-19 14 -13 0 -22 4 -20 10 3 12 37 14 37 2 0 -6 5 -6 13 0 12 9 103 9 145 -1
12 -3 22 0 22 5 0 6 5 7 11 3 6 -3 52 -8 103 -9 134 -4 138 -4 132 -14 -7 -11
22 -23 36 -15 6 4 17 -1 25 -11 12 -17 13 -16 9 13 -4 38 2 46 21 27 8 -8 19
-15 26 -15 6 0 3 6 -7 13 -15 11 -14 13 16 16 18 2 43 4 56 5 12 1 22 4 22 7
0 3 7 6 15 6 8 0 12 -4 10 -8 -3 -4 1 -9 8 -12 8 -3 13 3 13 14 0 11 -4 19 -8
19 -4 0 -8 5 -8 11 0 5 -11 26 -25 46 -13 20 -22 40 -19 45 3 4 1 8 -5 8 -13
0 -51 63 -51 85 0 14 3 15 14 6 10 -9 15 -8 19 3 4 11 1 13 -10 9 -11 -4 -14
-2 -9 5 4 7 2 12 -3 12 -6 0 -11 5 -11 11 0 5 5 7 10 4 6 -3 10 -1 10 5 0 7
-6 10 -13 7 -9 -3 -14 4 -14 22 0 17 6 28 14 28 9 0 11 -7 7 -21 -6 -21 -6
-21 9 -1 16 20 4 40 -17 28 -5 -4 -7 1 -3 10 3 9 2 19 -3 22 -16 10 -11 25 5
19 8 -4 15 -1 15 6 0 6 -4 8 -10 5 -5 -3 -10 -2 -10 3 0 18 30 22 31 4 0 -11
2 -12 6 -4 3 7 -11 30 -31 52 -23 26 -34 46 -30 57 5 15 4 15 -4 4 -9 -12 -13
-10 -23 12 -7 15 -16 27 -21 27 -4 0 -8 7 -8 15 0 23 15 18 30 -10 7 -14 17
-25 22 -25 13 0 10 7 -16 35 -28 30 -62 26 -45 -6 6 -13 6 -19 0 -19 -9 0 -31
31 -31 43 0 5 41 20 52 18 4 0 5 6 1 15 -5 15 -7 15 -15 0 -5 -9 -17 -16 -26
-16 -15 0 -15 2 -2 10 12 8 10 10 -10 8 -18 -2 -25 2 -27 17 -1 11 0 14 3 8 3
-7 10 -13 16 -13 5 0 -6 23 -26 50 -39 55 -42 61 -24 57 7 -1 13 9 14 23 2 22
2 22 -3 2 -2 -12 -8 -20 -13 -17 -22 14 -19 -20 5 -51 35 -46 26 -55 -11 -12
-15 18 -25 25 -21 16 7 -20 -1 -23 -23 -8 -8 5 -10 10 -4 10 7 0 15 7 18 16 5
14 4 15 -9 4 -9 -7 -19 -9 -23 -5 -4 4 -2 10 4 12 6 2 20 11 30 19 18 14 18
15 -3 5 -13 -7 -24 -7 -28 -2 -3 5 3 12 12 14 15 4 15 5 2 6 -9 0 -24 -8 -34
-19 -10 -11 -23 -20 -28 -20 -6 0 -1 10 11 23 12 13 22 27 22 33 0 5 -5 2 -10
-8 -10 -17 -50 -14 -50 4 0 5 4 7 9 4 11 -7 7 41 -4 52 -4 4 -4 -4 0 -18 7
-22 6 -23 -8 -12 -9 8 -24 11 -34 8 -13 -4 -22 2 -30 19 -10 22 -9 25 4 23 9
-2 18 4 20 12 3 9 1 11 -4 5 -4 -6 -27 -10 -49 -10 -32 1 -41 -2 -37 -12 3 -8
2 -13 -3 -11 -11 3 -73 -29 -98 -51 -18 -15 -18 -15 -5 9 7 14 12 28 11 33 -1
4 2 7 7 7 9 0 35 59 32 73 -1 5 4 5 11 1 7 -5 1 7 -15 25 -15 18 -24 38 -21
43 4 6 2 8 -3 5 -14 -9 -46 40 -37 55 4 7 3 8 -4 4 -7 -4 -24 11 -42 36 -17
24 -77 104 -133 178 -56 74 -171 229 -255 344 -181 246 -162 221 -206 271
l-34 40 -106 -31 c-58 -17 -108 -29 -110 -26 -3 2 18 49 45 104 33 65 49 108
45 122 -3 11 -29 53 -58 91 -29 39 -62 83 -73 99 -11 15 -34 46 -51 69 -120
161 -409 559 -430 592 -10 17 -21 32 -24 35 -3 3 -17 21 -30 40 -14 19 -30 42
-37 50 -55 69 -83 113 -77 122 4 7 3 8 -4 4 -13 -8 -35 28 -24 39 4 5 2 5 -5
1 -7 -4 -17 2 -23 15 -10 17 -9 20 1 14 6 -5 -6 10 -29 33 -32 32 -40 47 -37
69 2 15 4 39 4 53 1 19 3 22 10 11 6 -9 6 -23 0 -35 -10 -21 -10 -21 5 -2 14
17 14 23 2 41 -12 19 -12 23 2 34 10 6 11 9 3 5 -10 -5 -12 2 -8 34 3 33 1 39
-11 34 -11 -4 -13 -2 -7 8 6 9 4 11 -5 5 -17 -10 -140 -13 -134 -3 3 4 1 8 -5
8 -5 0 -12 -4 -16 -9 -3 -6 -14 -9 -25 -8 -21 1 -28 31 -10 42 6 3 10 -3 10
-14 0 -12 4 -21 10 -21 5 0 6 7 3 17 -5 12 -3 14 7 8 8 -5 11 -4 7 2 -4 6 9
18 31 26 28 12 31 16 15 16 -12 1 -25 -3 -28 -9 -3 -5 -11 -10 -18 -10 -8 0
-8 3 1 12 7 7 12 16 12 22 0 5 -6 1 -14 -9 -8 -11 -12 -23 -10 -27 7 -11 -4
-10 -27 3 -11 5 -17 14 -14 20 4 5 1 9 -4 9 -14 0 -14 -17 -1 -25 6 -3 10 -12
10 -18 -1 -7 -9 -2 -19 11 -13 15 -21 18 -24 10 -4 -10 -6 -10 -6 0 -1 6 -8
12 -18 12 -9 0 -13 3 -9 7 6 6 16 8 70 16 11 1 21 8 22 15 1 7 0 8 -3 2 -6
-14 -24 -13 -20 1 2 12 -31 21 -45 13 -5 -3 -3 -13 3 -21 11 -12 10 -14 -7
-11 -10 1 -23 8 -27 13 -5 6 -7 4 -4 -6 4 -12 -2 -16 -24 -16 -21 0 -26 3 -19
12 8 9 6 14 -6 19 -21 8 -24 8 -24 -5 0 -5 5 -7 10 -4 6 3 10 2 10 -2 0 -5
-10 -14 -21 -22 -20 -12 -21 -11 -15 4 6 16 4 16 -11 4 -15 -12 -16 -12 -10 3
3 9 -1 22 -9 29 -8 6 -12 14 -9 17 3 3 13 -2 24 -12 16 -15 19 -15 24 -2 4 11
1 13 -10 9 -10 -4 -14 -2 -10 4 3 5 0 10 -8 11 -8 1 -22 3 -30 4 -8 1 -15 5
-15 10 0 4 -5 8 -11 8 -8 0 -8 -4 0 -14z m26 -15 c-3 -5 2 -16 10 -25 16 -16
7 -28 -27 -33 -12 -2 -16 2 -12 15 5 13 4 14 -4 3 -5 -7 -7 -23 -4 -34 3 -12
7 -16 10 -9 3 10 7 10 20 0 10 -8 13 -9 9 -1 -9 15 7 25 27 17 16 -6 23 -25 9
-23 -19 3 -34 -2 -29 -9 6 -10 -25 -9 -42 2 -6 4 -18 4 -24 -1 -7 -4 -20 -8
-28 -8 -8 0 -20 -3 -25 -7 -7 -4 -11 3 -10 18 0 28 28 49 51 40 9 -3 18 2 21
12 4 9 16 25 28 34 23 20 29 22 20 9z m205 -35 c-7 -7 -14 -6 -21 1 -9 9 -7
12 9 10 14 -1 18 -5 12 -11z m-118 -47 c-1 -9 3 -8 11 4 8 9 17 17 21 17 9 0
4 -33 -6 -40 -4 -3 1 -11 11 -17 14 -9 20 -7 30 9 7 11 9 18 4 15 -5 -3 -15
-2 -22 2 -8 5 -9 11 -4 14 6 4 18 0 29 -7 15 -11 16 -17 6 -28 -6 -8 -8 -18
-4 -23 4 -4 -6 -5 -22 -1 -16 4 -38 18 -48 32 -11 13 -24 22 -29 19 -10 -7
-12 8 -2 19 11 10 28 0 25 -15z m-222 1 c0 -5 -5 -10 -11 -10 -5 0 -8 -4 -5
-8 3 -5 -1 -9 -9 -9 -18 0 -19 9 -3 25 15 15 28 16 28 2z m336 -56 c-25 -18
-40 0 -23 27 10 17 13 17 27 3 13 -14 13 -17 -4 -30z m-626 -179 c-10 -12 -9
-15 6 -15 14 0 15 -3 6 -12 -17 -17 -47 9 -31 28 6 8 16 14 21 14 6 0 5 -7 -2
-15z m2803 -2562 c4 -3 2 -12 -4 -19 -8 -10 -5 -15 15 -20 20 -5 24 -9 16 -19
-8 -10 -7 -16 5 -23 9 -5 16 -12 16 -15 -1 -4 -1 -15 -1 -24 0 -15 2 -16 10
-3 5 8 6 17 2 20 -13 10 -11 28 5 41 14 12 15 11 9 -8 -8 -25 27 -68 49 -59
18 6 49 -29 42 -49 -4 -8 -3 -14 1 -13 15 3 42 -14 36 -23 -9 -15 26 -61 42
-55 17 6 36 -27 28 -48 -6 -17 -16 -20 -27 -9 -4 3 1 12 11 19 15 11 14 12
-13 9 -34 -3 -57 4 -50 15 3 5 -1 15 -9 23 -8 8 -12 17 -9 21 3 3 12 -2 20
-12 13 -15 13 -15 3 6 -6 12 -16 22 -23 22 -8 0 -8 3 2 9 9 6 10 11 2 15 -6 4
-11 2 -11 -5 0 -9 -4 -8 -15 1 -11 9 -12 17 -4 31 6 13 6 19 -1 19 -5 0 -10
-5 -10 -11 0 -6 -9 -1 -21 12 l-21 24 16 -25 c20 -30 20 -37 1 -37 -8 0 -14 5
-13 11 1 6 -5 25 -14 41 l-16 30 1 -27 c1 -14 5 -24 10 -21 4 2 6 1 5 -4 -1
-4 2 -19 6 -32 7 -19 10 -21 18 -10 8 11 9 10 4 -4 -5 -14 -2 -16 13 -8 12 7
22 6 29 -1 16 -16 15 -33 0 -20 -7 5 -22 8 -33 6 -15 -2 -29 12 -60 64 -22 37
-39 70 -37 74 1 5 -2 8 -8 8 -5 0 -10 7 -10 16 0 8 -4 13 -9 10 -8 -5 -31 35
-31 54 0 11 23 13 33 3z m169 -263 c17 -18 18 -22 5 -17 -9 3 -19 1 -23 -5 -5
-7 -2 -8 6 -3 9 5 11 4 6 -3 -5 -8 -2 -10 9 -6 13 5 15 1 11 -21 -3 -15 -2
-24 2 -20 4 3 7 12 7 18 0 5 10 11 22 12 12 1 20 -2 18 -6 -3 -4 2 -13 11 -20
14 -11 18 -10 31 6 12 15 17 17 20 6 3 -7 15 -22 28 -33 l22 -19 -26 -30 -25
-29 -12 22 c-9 17 -9 25 -1 30 20 13 30 9 18 -6 -9 -11 -9 -16 0 -22 7 -4 9
-3 5 4 -3 6 0 14 8 19 12 7 12 10 0 20 -8 8 -15 9 -19 3 -3 -6 -11 -10 -17
-10 -6 0 -3 9 7 20 10 11 15 20 10 20 -4 0 -13 -7 -19 -16 -10 -13 -28 -20
-58 -23 -5 -1 -8 -6 -8 -12 0 -5 4 -8 9 -4 12 7 43 -24 36 -35 -3 -5 1 -11 7
-13 10 -4 9 -8 -2 -17 -13 -10 -12 -11 3 -6 10 3 15 2 12 -3 -3 -5 -1 -12 5
-16 6 -4 8 -11 5 -16 -4 -5 -4 -9 -1 -9 3 0 10 9 16 20 8 15 8 18 -3 15 -7 -3
-13 2 -14 13 -1 14 5 19 20 18 14 -1 21 -7 18 -16 -8 -33 -8 -76 1 -94 7 -12
6 -22 -1 -29 -8 -8 -11 -8 -11 2 0 6 -11 28 -25 48 -13 20 -22 40 -19 45 3 4
1 8 -5 8 -6 0 -23 21 -38 48 -15 26 -32 50 -38 54 -5 4 -6 8 -1 8 5 0 3 7 -4
15 -7 8 -10 21 -7 29 4 10 1 13 -9 9 -12 -5 -18 7 -11 23 1 3 -6 10 -15 15
-22 12 -24 38 -3 35 8 -1 25 -13 37 -26z m95 -122 c0 -7 4 -22 7 -33 5 -13 2
-12 -8 5 -17 29 -20 40 -8 40 5 0 9 -6 9 -12z m-637 -439 c0 -4 -7 -12 -15
-19 -13 -10 -19 -10 -33 4 -10 9 -22 13 -27 9 -4 -5 -5 -2 -1 5 8 13 76 14 76
1z m88 -11 c7 -9 21 -15 32 -13 13 3 17 -1 13 -11 -7 -18 2 -18 33 2 13 9 27
14 31 10 3 -3 0 -6 -7 -6 -9 0 -8 -5 4 -19 21 -23 4 -40 -20 -20 -12 10 -12
14 -2 20 9 6 9 9 1 9 -21 0 -23 -17 -4 -34 10 -9 25 -14 34 -11 8 4 18 1 22
-4 3 -6 11 -8 17 -5 7 4 8 2 4 -5 -4 -6 -12 -8 -18 -5 -24 15 -69 11 -92 -7
-28 -22 -35 -16 -31 23 4 31 -25 55 -63 52 -15 -1 -21 3 -18 11 2 7 0 17 -6
23 -8 8 -1 10 23 9 19 -1 40 -10 47 -19z m512 -9 c0 -5 -4 -9 -10 -9 -5 0 -10
7 -10 16 0 8 5 12 10 9 6 -3 10 -10 10 -16z m30 0 c0 -6 -4 -7 -10 -4 -5 3
-10 11 -10 16 0 6 5 7 10 4 6 -3 10 -11 10 -16z m-745 -9 c3 -5 1 -10 -4 -10
-6 0 -11 5 -11 10 0 6 2 10 4 10 3 0 8 -4 11 -10z m137 -82 c-7 -7 -12 -8 -12
-2 0 14 12 26 19 19 2 -3 -1 -11 -7 -17z"/>
<path d="M3350 5580 c0 -5 5 -10 11 -10 5 0 7 5 4 10 -3 6 -8 10 -11 10 -2 0
-4 -4 -4 -10z"/>
<path d="M3259 5532 c-7 -9 -10 -14 -5 -10 5 4 17 3 26 -2 13 -7 21 -5 31 8 7
9 10 14 5 10 -5 -4 -17 -3 -26 2 -13 7 -21 5 -31 -8z"/>
<path d="M3550 5490 c0 -5 5 -10 11 -10 5 0 7 5 4 10 -3 6 -8 10 -11 10 -2 0
-4 -4 -4 -10z"/>
<path d="M5950 2449 c0 -5 5 -7 10 -4 6 3 10 8 10 11 0 2 -4 4 -10 4 -5 0 -10
-5 -10 -11z"/>
<path d="M5876 2482 c-3 -5 1 -9 9 -9 8 0 12 4 9 9 -3 4 -7 8 -9 8 -2 0 -6 -4
-9 -8z"/>
<path d="M5942 2415 c4 -5 4 -13 -2 -19 -5 -7 -5 -17 0 -26 7 -11 10 -12 10
-2 0 7 4 11 8 8 4 -2 14 -1 21 3 9 6 4 13 -16 26 -15 10 -25 14 -21 10z m22
-23 c3 -5 -1 -9 -9 -9 -8 0 -12 4 -9 9 3 4 7 8 9 8 2 0 6 -4 9 -8z"/>
<path d="M5960 2332 c0 -4 6 -16 13 -26 10 -14 14 -15 14 -4 0 7 -6 19 -14 26
-7 7 -13 9 -13 4z"/>
<path d="M6036 2223 c-6 -14 -5 -15 5 -6 7 7 10 15 7 18 -3 3 -9 -2 -12 -12z"/>
<path d="M5414 1899 c-3 -6 -3 -13 0 -16 3 -4 6 -1 6 5 0 6 7 9 15 6 8 -4 15
-4 15 -1 0 11 -30 16 -36 6z"/>
<path d="M5468 1868 c13 -6 21 -17 18 -24 -3 -9 1 -11 12 -7 14 5 14 3 -3 -18
l-20 -24 21 18 c11 9 23 16 25 15 3 -2 -8 9 -23 25 -16 15 -34 27 -41 26 -6 0
-2 -5 11 -11z"/>
<path d="M2875 5619 c-4 -6 -5 -12 -2 -15 2 -3 7 2 10 11 7 17 1 20 -8 4z"/>
<path d="M3150 5623 c5 -2 8 -9 4 -14 -3 -5 0 -9 6 -9 15 0 7 23 -8 26 -7 1
-8 0 -2 -3z"/>
<path d="M3555 5620 c-3 -6 1 -7 9 -4 18 7 21 14 7 14 -6 0 -13 -4 -16 -10z"/>
<path d="M3595 5619 c-4 -6 -5 -12 -2 -15 2 -3 7 2 10 11 7 17 1 20 -8 4z"/>
<path d="M3796 5617 c3 -10 9 -15 12 -12 3 3 0 11 -7 18 -10 9 -11 8 -5 -6z"/>
<path d="M3296 5608 c5 -8 1 -9 -12 -4 -14 5 -16 4 -7 -5 6 -6 16 -8 22 -5 14
9 14 26 0 26 -5 0 -7 -5 -3 -12z"/>
<path d="M3450 5612 c0 -4 9 -15 20 -25 11 -9 20 -12 20 -7 0 6 -7 13 -15 16
-8 4 -12 10 -9 15 3 5 0 9 -5 9 -6 0 -11 -3 -11 -8z"/>
<path d="M3492 5605 c15 -16 20 -17 30 -6 11 11 10 13 0 7 -7 -4 -21 -2 -30 5
-15 12 -15 11 0 -6z"/>
<path d="M3650 5610 c0 -5 5 -10 10 -10 6 0 10 5 10 10 0 6 -4 10 -10 10 -5 0
-10 -4 -10 -10z"/>
<path d="M3686 5611 c8 -9 44 -11 44 -3 0 4 -11 8 -25 8 -13 0 -22 -2 -19 -5z"/>
<path d="M3825 5610 c-3 -6 1 -7 9 -4 18 7 21 14 7 14 -6 0 -13 -4 -16 -10z"/>
<path d="M2991 5584 c5 -6 7 -19 3 -28 -3 -9 -4 -16 -1 -16 3 0 9 13 15 28 8
24 7 28 -9 28 -12 0 -15 -4 -8 -12z"/>
<path d="M3038 5582 c4 -10 7 -12 10 -4 2 7 9 9 15 5 7 -3 8 -2 4 2 -14 16
-36 14 -29 -3z"/>
<path d="M3736 5585 c-3 -9 -6 -22 -5 -28 0 -7 5 -1 10 12 5 13 8 26 5 28 -2
2 -6 -3 -10 -12z"/>
<path d="M3780 5596 c0 -2 8 -10 18 -17 15 -13 16 -12 3 4 -13 16 -21 21 -21
13z"/>
<path d="M2815 5570 c3 -5 8 -10 11 -10 2 0 4 5 4 10 0 6 -5 10 -11 10 -5 0
-7 -4 -4 -10z"/>
<path d="M2939 5563 c-13 -16 -12 -17 4 -4 16 13 21 21 13 21 -2 0 -10 -8 -17
-17z"/>
<path d="M3680 5570 c-23 -7 -23 -8 -3 -9 12 -1 25 4 28 9 3 6 5 10 3 9 -2 -1
-14 -5 -28 -9z"/>
<path d="M3754 5568 c-4 -7 -4 -10 1 -6 4 4 15 2 24 -5 14 -11 14 -10 2 6 -16
20 -18 21 -27 5z"/>
<path d="M3819 5563 c-13 -17 -13 -17 6 -3 11 8 22 16 24 17 2 2 0 3 -6 3 -6
0 -17 -8 -24 -17z"/>
<path d="M3076 5557 c3 -10 9 -15 12 -12 3 3 0 11 -7 18 -10 9 -11 8 -5 -6z"/>
<path d="M3610 5548 c-12 -22 -12 -22 6 -6 10 10 15 20 12 24 -4 3 -12 -5 -18
-18z"/>
<path d="M2875 5550 c-3 -5 -1 -10 4 -10 6 0 11 5 11 10 0 6 -2 10 -4 10 -3 0
-8 -4 -11 -10z"/>
<path d="M3009 5538 c-6 -11 -8 -22 -5 -26 3 -3 6 0 6 7 0 7 4 9 10 6 5 -3 7
0 5 7 -4 9 2 14 15 14 13 0 19 -5 16 -13 -3 -7 -1 -13 5 -13 6 0 9 8 7 17 -4
23 -47 24 -59 1z"/>
<path d="M2835 5539 c-4 -6 -5 -12 -2 -15 2 -3 7 2 10 11 7 17 1 20 -8 4z"/>
<path d="M2934 5532 c4 -3 14 -7 22 -8 9 -1 13 0 10 4 -4 3 -14 7 -22 8 -9 1
-13 0 -10 -4z"/>
<path d="M3831 5537 c2 -2 11 -8 20 -15 12 -9 16 -9 16 1 0 7 -9 14 -20 14
-11 1 -18 1 -16 0z"/>
<path d="M3683 5514 c-18 -8 -33 -16 -33 -18 0 -9 51 8 61 20 14 16 13 16 -28
-2z"/>
<path d="M2916 5503 c-6 -14 -5 -15 5 -6 7 7 10 15 7 18 -3 3 -9 -2 -12 -12z"/>
<path d="M3733 5515 c4 -5 -5 -15 -20 -22 -26 -12 -26 -12 -3 -7 33 8 45 20
28 29 -7 5 -10 4 -5 0z"/>
<path d="M3790 5515 c0 -13 20 -35 32 -35 4 0 8 5 8 11 0 5 -4 8 -9 4 -6 -3
-14 3 -20 12 -6 10 -11 13 -11 8z"/>
<path d="M3990 5509 c0 -5 5 -7 10 -4 6 3 10 8 10 11 0 2 -4 4 -10 4 -5 0 -10
-5 -10 -11z"/>
<path d="M2941 5494 c0 -11 3 -14 6 -6 3 7 2 16 -1 19 -3 4 -6 -2 -5 -13z"/>
<path d="M3762 5494 c-7 -8 -8 -14 -3 -14 10 0 25 19 20 25 -2 1 -10 -3 -17
-11z"/>
<path d="M2793 5483 c0 -9 4 -10 14 -2 7 6 13 12 13 14 0 1 -6 2 -13 2 -8 0
-14 -6 -14 -14z"/>
<path d="M2976 5491 c-4 -5 3 -7 14 -4 23 6 26 13 6 13 -8 0 -17 -4 -20 -9z"/>
<path d="M2834 5458 l-19 -23 23 19 c21 18 27 26 19 26 -2 0 -12 -10 -23 -22z"/>
<path d="M2908 5473 c7 -3 16 -2 19 1 4 3 -2 6 -13 5 -11 0 -14 -3 -6 -6z"/>
<path d="M2859 5443 c-13 -17 -13 -17 6 -3 11 8 22 16 24 17 2 2 0 3 -6 3 -6
0 -17 -8 -24 -17z"/>
<path d="M2913 5441 c0 -11 5 -18 9 -15 4 3 5 11 1 19 -7 21 -12 19 -10 -4z"/>
<path d="M2814 5419 c-3 -6 -2 -15 3 -20 5 -5 9 -1 9 11 0 23 -2 24 -12 9z"/>
<path d="M3832 5422 c-9 -6 -6 -11 11 -19 18 -9 24 -8 24 2 0 8 -7 11 -15 7
-10 -3 -13 -1 -8 6 8 14 6 15 -12 4z"/>
<path d="M3894 5410 c0 -13 4 -16 10 -10 7 7 7 13 0 20 -6 6 -10 3 -10 -10z"/>
<path d="M2873 5404 c0 -17 25 -26 33 -12 5 7 2 8 -6 3 -9 -6 -12 -4 -8 7 4 8
1 15 -6 15 -7 0 -13 -6 -13 -13z"/>
<path d="M2867 5369 c7 -7 15 -10 18 -7 3 3 -2 9 -12 12 -14 6 -15 5 -6 -5z"/>
<path d="M3860 5370 c-8 -5 -10 -10 -5 -10 6 0 17 5 25 10 8 5 11 10 5 10 -5
0 -17 -5 -25 -10z"/>
<path d="M2800 5350 c-9 -6 -10 -10 -3 -10 6 0 15 5 18 10 8 12 4 12 -15 0z"/>
<path d="M2834 5353 c3 -4 0 -13 -6 -22 -10 -12 -7 -12 8 2 11 9 23 16 25 15
2 -2 3 -1 1 1 -1 3 -10 6 -18 7 -9 1 -13 0 -10 -3z"/>
<path d="M2908 5353 c7 -3 16 -2 19 1 4 3 -2 6 -13 5 -11 0 -14 -3 -6 -6z"/>
<path d="M3837 5349 c7 -7 15 -10 18 -7 3 3 -2 9 -12 12 -14 6 -15 5 -6 -5z"/>
<path d="M2896 5325 c5 -11 1 -14 -12 -9 -15 5 -16 4 -4 -4 8 -6 18 -8 22 -6
11 7 10 34 -2 34 -5 0 -7 -7 -4 -15z"/>
<path d="M3834 5312 c3 -5 0 -13 -6 -15 -8 -3 -6 -6 5 -6 19 -1 23 14 5 25 -6
4 -8 3 -4 -4z"/>
<path d="M2815 5300 c-4 -6 -10 -8 -15 -5 -4 3 -14 -3 -21 -13 -12 -15 -12
-16 2 -5 9 7 18 11 21 8 3 -3 11 1 18 10 7 8 10 15 7 15 -3 0 -9 -5 -12 -10z"/>
<path d="M2836 5282 c-11 -15 -13 -21 -6 -14 17 15 34 16 24 0 -4 -6 -3 -8 4
-5 5 4 8 16 5 27 -6 24 -4 25 -27 -8z"/>
<path d="M3930 5306 c0 -2 8 -10 18 -17 15 -13 16 -12 3 4 -13 16 -21 21 -21
13z"/>
<path d="M3875 5290 c-3 -5 -1 -10 4 -10 6 0 11 5 11 10 0 6 -2 10 -4 10 -3 0
-8 -4 -11 -10z"/>
<path d="M2872 5259 c-7 -12 -11 -24 -8 -27 3 -3 6 0 6 7 0 7 4 10 8 7 4 -2 9
4 9 15 2 24 1 24 -15 -2z"/>
<path d="M3813 5264 c0 -18 33 -48 45 -40 5 3 9 15 8 27 -1 16 -8 23 -27 25
-17 1 -26 -3 -26 -12z m44 -14 c-2 -24 -10 -25 -26 -6 -10 11 -8 15 6 19 10 3
19 5 20 6 1 0 1 -8 0 -19z"/>
<path d="M3956 5261 c-4 -5 -17 -8 -31 -7 -13 2 -22 -1 -19 -5 7 -12 41 -6 56
9 7 7 9 12 6 12 -4 0 -9 -4 -12 -9z"/>
<path d="M2776 5252 c-3 -5 1 -9 9 -9 8 0 12 4 9 9 -3 4 -7 8 -9 8 -2 0 -6 -4
-9 -8z"/>
<path d="M2836 5237 c3 -10 9 -15 12 -12 3 3 0 11 -7 18 -10 9 -11 8 -5 -6z"/>
<path d="M2894 5225 c-4 -8 -10 -13 -14 -10 -5 3 -11 2 -14 -3 -3 -5 9 -8 26
-8 34 1 49 20 23 30 -9 3 -18 -1 -21 -9z m21 -5 c3 -5 1 -10 -4 -10 -6 0 -11
5 -11 10 0 6 2 10 4 10 3 0 8 -4 11 -10z"/>
<path d="M3875 5220 c-8 -13 3 -30 18 -30 7 0 6 4 -3 10 -13 9 -13 11 0 20 9
6 10 10 3 10 -6 0 -15 -4 -18 -10z"/>
<path d="M2836 5183 c-6 -14 -5 -15 5 -6 7 7 10 15 7 18 -3 3 -9 -2 -12 -12z"/>
<path d="M2863 5180 c2 -8 10 -15 17 -15 7 0 15 7 17 15 4 13 3 13 -6 0 -10
-13 -12 -13 -22 0 -9 13 -10 13 -6 0z"/>
<path d="M2835 5143 c11 -12 18 -14 26 -6 8 8 7 13 -2 18 -8 5 -10 4 -5 -3 9
-15 -6 -16 -22 -2 -7 5 -5 2 3 -7z"/>
<path d="M2726 5112 c-3 -5 1 -9 9 -9 8 0 12 4 9 9 -3 4 -7 8 -9 8 -2 0 -6 -4
-9 -8z"/>
<path d="M2854 5113 c4 -8 2 -13 -6 -14 -25 -1 -50 -8 -56 -14 -4 -3 7 -4 23
-1 16 3 34 1 40 -4 14 -11 14 25 0 37 -4 5 -5 2 -1 -4z"/>
<path d="M2670 5091 c0 -6 4 -13 10 -16 6 -3 7 1 4 9 -7 18 -14 21 -14 7z"/>
<path d="M2831 5037 c-8 -10 -7 -14 4 -14 8 0 11 5 8 10 -4 6 1 8 11 4 10 -4
15 -3 11 3 -8 14 -20 12 -34 -3z"/>
<path d="M1269 2973 c-13 -16 -12 -17 4 -4 9 7 17 15 17 17 0 8 -8 3 -21 -13z"/>
<path d="M1217 2965 c-4 -8 -3 -16 1 -19 4 -3 9 4 9 15 2 23 -3 25 -10 4z"/>
<path d="M5535 2961 c-3 -5 -2 -12 3 -15 5 -3 9 1 9 9 0 17 -3 19 -12 6z"/>
<path d="M5833 2945 c0 -8 4 -12 9 -9 5 3 6 10 3 15 -9 13 -12 11 -12 -6z"/>
<path d="M5674 2939 c-3 -6 -2 -15 3 -20 5 -5 9 -1 9 11 0 23 -2 24 -12 9z"/>
<path d="M5636 2923 c-6 -14 -5 -15 5 -6 7 7 10 15 7 18 -3 3 -9 -2 -12 -12z"/>
<path d="M1000 2890 c-9 -6 -10 -10 -3 -10 6 0 15 5 18 10 8 12 4 12 -15 0z"/>
<path d="M1060 2896 c0 -2 8 -10 18 -17 15 -13 16 -12 3 4 -13 16 -21 21 -21
13z"/>
<path d="M1149 2887 c6 -8 7 -18 3 -22 -4 -5 -1 -5 6 -1 10 6 10 11 1 22 -6 8
-14 14 -16 14 -3 0 0 -6 6 -13z"/>
<path d="M5615 2891 c-3 -5 -2 -12 3 -15 5 -3 9 1 9 9 0 17 -3 19 -12 6z"/>
<path d="M5696 2883 c-6 -14 -5 -15 5 -6 7 7 10 15 7 18 -3 3 -9 -2 -12 -12z"/>
<path d="M5735 2890 c-3 -5 -1 -10 4 -10 6 0 11 5 11 10 0 6 -2 10 -4 10 -3 0
-8 -4 -11 -10z"/>
<path d="M5824 2892 c4 -3 14 -7 22 -8 9 -1 13 0 10 4 -4 3 -14 7 -22 8 -9 1
-13 0 -10 -4z"/>
<path d="M5893 2865 c0 -8 4 -12 9 -9 5 3 6 10 3 15 -9 13 -12 11 -12 -6z"/>
<path d="M1256 2861 c-3 -5 -19 -7 -34 -6 -18 1 -29 -3 -29 -11 0 -7 5 -10 11
-6 17 10 50 9 58 -3 4 -5 6 0 5 13 -1 24 -3 26 -11 13z"/>
<path d="M5793 2855 c0 -8 4 -12 9 -9 5 3 6 10 3 15 -9 13 -12 11 -12 -6z"/>
<path d="M996 2843 c-6 -14 -5 -15 5 -6 7 7 10 15 7 18 -3 3 -9 -2 -12 -12z"/>
<path d="M5595 2850 c-3 -5 3 -7 12 -5 10 1 25 -2 33 -8 12 -9 13 -9 3 3 -15
16 -41 22 -48 10z"/>
<path d="M5693 2843 c0 -9 4 -10 12 -3 7 5 15 7 18 3 4 -3 7 -1 7 5 0 6 -8 10
-18 9 -10 0 -19 -7 -19 -14z"/>
<path d="M5819 2843 c-13 -16 -12 -17 4 -4 9 7 17 15 17 17 0 8 -8 3 -21 -13z"/>
<path d="M5850 2851 c0 -6 4 -13 10 -16 6 -3 7 1 4 9 -7 18 -14 21 -14 7z"/>
<path d="M910 2830 c0 -5 5 -10 11 -10 5 0 7 5 4 10 -3 6 -8 10 -11 10 -2 0
-4 -4 -4 -10z"/>
<path d="M5744 2832 c4 -3 14 -7 22 -8 9 -1 13 0 10 4 -4 3 -14 7 -22 8 -9 1
-13 0 -10 -4z"/>
<path d="M5899 2838 c-5 -16 -4 -46 2 -42 4 2 7 13 6 24 -1 17 -5 26 -8 18z"/>
<path d="M1055 2819 c-4 -6 -5 -12 -2 -15 2 -3 7 2 10 11 7 17 1 20 -8 4z"/>
<path d="M1270 2815 c-7 -9 -11 -17 -9 -20 3 -2 10 5 17 15 14 24 10 26 -8 5z"/>
<path d="M5596 2813 c-6 -14 -5 -15 5 -6 7 7 10 15 7 18 -3 3 -9 -2 -12 -12z"/>
<path d="M1130 2808 c0 -11 12 -10 30 2 12 7 10 9 -8 7 -12 0 -22 -5 -22 -9z"/>
<path d="M5570 2800 c6 -11 13 -20 16 -20 2 0 0 9 -6 20 -6 11 -13 20 -16 20
-2 0 0 -9 6 -20z"/>
<path d="M5738 2808 c5 -5 16 -8 23 -6 8 3 3 7 -10 11 -17 4 -21 3 -13 -5z"/>
<path d="M5830 2808 c0 -4 4 -8 9 -8 6 0 12 4 15 8 3 5 -1 9 -9 9 -8 0 -15 -4
-15 -9z"/>
<path d="M5950 2811 c0 -6 4 -13 10 -16 6 -3 7 1 4 9 -7 18 -14 21 -14 7z"/>
<path d="M1194 2791 c-10 -11 -22 -17 -27 -14 -6 3 -7 1 -3 -6 11 -17 -12 -41
-32 -35 -15 5 -14 4 1 -6 17 -11 15 -30 -4 -30 -6 0 -7 5 -4 10 11 18 -3 10
-32 -17 -19 -18 -22 -24 -10 -20 10 4 21 7 23 7 3 0 2 5 -1 10 -3 6 -2 10 3
10 20 0 19 -14 -4 -51 -13 -21 -24 -43 -24 -49 0 -5 -4 -10 -10 -10 -5 0 -10
-7 -10 -15 0 -9 -6 -18 -14 -21 -8 -3 -12 -12 -9 -20 3 -8 0 -14 -7 -14 -6 0
-9 -4 -6 -9 3 -5 -1 -12 -10 -15 -9 -4 -14 -9 -11 -13 6 -6 -29 -62 -46 -74
-5 -3 -8 -9 -8 -13 3 -20 0 -26 -9 -21 -5 3 -10 -3 -10 -14 0 -12 -4 -21 -8
-21 -10 0 -8 37 3 62 4 10 11 16 15 13 4 -3 13 2 20 10 9 10 9 15 1 15 -6 0
-11 -5 -11 -11 0 -5 -5 -7 -10 -4 -6 4 -7 11 -4 17 4 6 2 8 -3 5 -6 -4 -13 0
-17 8 -6 18 -2 19 26 4 12 -6 18 -7 14 -1 -7 12 21 24 37 16 7 -3 3 2 -7 10
-11 9 -14 16 -8 16 21 0 27 3 39 19 9 13 8 18 -3 24 -8 4 -18 6 -23 3 -11 -7
-22 20 -15 37 7 20 -18 38 -36 27 -13 -9 -13 -10 0 -11 8 -1 18 -1 23 0 9 1 9
-3 1 -24 -6 -13 -9 -14 -16 -3 -7 9 -8 7 -3 -7 4 -11 7 -26 6 -32 -3 -37 -5
-43 -11 -43 -14 0 -19 13 -10 29 5 10 5 23 0 31 -7 11 -13 9 -30 -11 -16 -18
-20 -19 -16 -6 3 11 2 16 -4 12 -6 -3 -10 -1 -10 4 0 6 -5 11 -11 11 -6 0 -4
-9 5 -21 8 -12 12 -29 8 -38 -3 -9 6 -3 21 13 15 16 30 27 33 23 3 -3 -4 -15
-15 -26 -12 -12 -18 -27 -14 -37 5 -14 3 -15 -15 -5 -15 8 -22 8 -22 1 0 -5 7
-10 15 -10 8 0 15 -4 15 -10 0 -13 -6 -13 -31 0 -16 9 -17 15 -9 33 11 21 11
21 -4 3 -9 -11 -16 -16 -16 -11 0 5 -6 3 -12 -4 -11 -10 -9 -15 5 -26 12 -8
14 -15 8 -20 -14 -8 -14 -25 0 -25 5 0 8 4 5 9 -8 13 21 34 35 25 7 -4 17 0
24 9 10 14 12 14 23 -3 12 -20 14 -19 -48 -21 -16 0 -20 -5 -15 -20 5 -15 3
-18 -12 -13 -16 6 -15 5 2 -9 11 -9 15 -17 8 -17 -7 0 -22 10 -33 23 -18 19
-20 19 -14 3 5 -14 4 -17 -4 -12 -7 4 -12 2 -12 -4 0 -7 6 -10 14 -7 7 3 23
-1 35 -9 15 -11 26 -12 40 -4 27 14 36 13 22 -4 -9 -11 -9 -16 0 -22 8 -5 9
-3 4 6 -5 9 -4 11 4 6 8 -6 6 -18 -11 -44 -12 -20 -26 -39 -30 -40 -5 -2 -5
-9 -2 -15 5 -8 2 -8 -6 0 -12 11 -11 15 6 28 19 15 19 15 -1 9 -16 -5 -17 -4
-5 5 13 10 13 12 0 21 -11 8 -9 9 13 6 15 -3 27 0 27 5 0 9 -15 13 -34 10 -5
-1 -17 6 -27 15 -14 13 -22 15 -31 6 -8 -8 -16 -5 -30 11 l-20 22 14 -25 c13
-22 13 -27 -3 -43 -16 -18 -18 -18 -33 5 -9 12 -16 18 -16 14 0 -5 8 -18 17
-28 16 -18 17 -18 45 9 42 40 34 14 -12 -37 -22 -25 -40 -52 -40 -62 0 -9 -5
-19 -10 -21 -6 -3 -5 -4 2 -3 7 1 15 13 18 27 4 16 8 20 14 11 4 -6 4 -17 0
-24 -4 -6 -3 -8 4 -4 5 3 13 0 16 -6 3 -7 4 -4 1 8 -3 12 1 27 10 34 8 7 15
17 15 23 0 5 -9 0 -19 -12 -11 -12 -22 -18 -25 -13 -3 5 5 19 18 31 22 21 25
21 34 6 6 -12 11 -14 16 -6 4 6 12 11 17 11 6 0 7 -4 4 -10 -3 -5 -2 -18 4
-27 7 -13 4 -24 -10 -42 -10 -13 -19 -29 -19 -37 0 -8 -9 -14 -20 -14 -11 0
-20 -5 -20 -11 0 -5 5 -7 10 -4 16 10 12 0 -20 -57 -16 -29 -34 -52 -39 -51
-6 2 -8 -3 -5 -10 2 -7 -4 -22 -14 -32 -13 -14 -16 -27 -11 -45 4 -14 7 -21 8
-17 1 4 9 3 19 -2 11 -6 38 -11 61 -12 30 -2 40 -7 36 -16 -3 -8 0 -11 6 -7 6
3 44 8 84 9 55 3 77 0 86 -11 7 -9 8 -14 1 -14 -12 0 -13 -58 -1 -66 5 -3 6 3
2 13 -4 13 0 11 18 -7 14 -14 23 -32 21 -40 -3 -13 -2 -13 6 -1 10 14 5 47 -6
36 -8 -7 -42 47 -36 57 6 10 24 11 23 1 -4 -26 2 -34 22 -28 14 5 19 3 15 -3
-3 -6 -3 -17 0 -26 5 -13 9 -14 20 -5 11 9 18 8 29 -1 10 -9 15 -9 15 -1 0 6
-4 11 -8 11 -8 0 -32 43 -32 56 0 3 14 -11 31 -31 25 -28 29 -38 19 -50 -19
-23 -2 -38 25 -21 18 12 25 12 28 3 3 -7 6 -5 6 6 1 21 -3 21 -34 1 -16 -10
-25 -12 -25 -5 0 6 11 16 24 22 14 7 22 17 20 23 -2 6 5 12 16 13 11 1 20 -2
20 -8 0 -5 -5 -9 -12 -9 -6 0 -3 -9 7 -20 10 -11 13 -20 7 -20 -7 0 -12 -5
-12 -11 0 -8 6 -7 17 2 15 12 16 12 11 -3 -9 -22 16 -56 27 -38 5 8 4 11 -2 7
-18 -11 -22 19 -7 42 18 25 30 27 38 5 5 -12 2 -15 -9 -10 -9 3 -13 2 -10 -4
3 -6 1 -10 -6 -10 -7 0 -10 -3 -7 -6 4 -3 16 -1 27 5 18 10 19 15 9 36 -6 14
-16 25 -21 25 -5 0 -4 7 3 15 16 19 31 20 24 1 -3 -7 2 -20 10 -29 8 -8 13
-17 10 -20 -3 -2 7 -4 21 -4 14 0 28 4 32 10 4 6 0 8 -10 4 -18 -7 -66 27 -54
39 4 4 13 -1 20 -11 8 -10 20 -15 28 -12 10 4 9 6 -4 6 -10 1 -16 5 -12 10 3
5 -3 12 -12 15 -10 3 -19 17 -19 30 -2 22 0 23 17 13 11 -7 15 -13 10 -15 -4
-1 7 -18 25 -36 34 -34 45 -68 22 -63 -7 1 -14 -9 -15 -23 -2 -22 -1 -22 5 -4
4 13 14 20 24 18 10 -1 21 3 25 8 3 7 1 8 -5 4 -7 -4 -12 -3 -12 3 0 5 -3 18
-7 28 -6 16 -5 16 10 4 11 -9 17 -10 17 -2 0 6 -4 11 -10 11 -5 0 -10 4 -10 9
0 5 11 9 25 9 13 0 23 -4 20 -7 -2 -4 5 -12 16 -19 24 -16 24 -7 0 19 -11 12
-25 18 -32 14 -7 -5 -10 -3 -7 6 5 14 9 14 38 6 8 -2 12 -2 7 0 -4 3 -4 10 -1
15 4 6 3 8 -3 5 -6 -4 -19 0 -29 8 -18 13 -17 14 9 11 18 -2 35 -13 48 -32 10
-16 19 -23 19 -15 0 7 17 29 38 49 20 20 30 30 20 24 -13 -10 -17 -10 -21 0
-4 8 -6 7 -6 -4 -1 -10 -5 -18 -10 -18 -5 0 -13 -9 -16 -20 -4 -11 -11 -17
-17 -14 -6 4 -6 10 0 16 6 6 8 17 5 26 -4 10 -2 13 5 8 6 -3 13 -2 16 3 4 5
-2 8 -11 6 -10 -2 -22 -4 -27 -4 -5 -1 -3 -8 4 -16 9 -11 9 -15 1 -15 -6 0
-16 10 -21 23 -7 17 -9 18 -9 5 -1 -10 -6 -18 -12 -18 -5 0 -7 5 -3 11 4 8 0
8 -15 0 -21 -12 -27 -5 -13 14 4 6 41 11 82 13 41 2 86 5 100 8 57 11 169 11
163 0 -3 -6 -3 -8 2 -4 4 4 15 2 24 -5 14 -11 14 -10 2 6 -13 16 -9 21 14 18
6 -1 3 4 -5 11 -20 17 -53 68 -43 68 4 0 -1 6 -10 13 -10 6 -19 23 -22 36 -2
14 -8 27 -13 30 -9 7 -92 139 -92 148 0 2 -9 18 -21 34 -11 16 -17 34 -13 40
4 7 3 9 -4 5 -6 -3 -13 3 -17 14 -3 11 -12 20 -18 20 -8 0 -7 3 2 9 11 7 9 10
-8 16 -12 3 -19 10 -16 15 3 5 1 11 -5 15 -6 4 -8 11 -5 16 4 5 2 9 -4 9 -14
0 -42 55 -33 65 4 5 2 5 -4 2 -7 -4 -21 13 -35 41 -13 26 -27 49 -31 50 -5 2
-8 8 -8 13 0 6 -5 15 -10 22 -28 33 -58 86 -52 92 4 4 3 6 -3 4 -5 -1 -22 3
-37 9 -22 9 -26 16 -22 39 3 20 2 24 -5 13 -5 -8 -7 -18 -5 -22 11 -18 -15 -6
-39 18 -26 26 -26 26 -43 5z m-204 -263 c0 13 20 17 20 4 0 -11 -51 -35 -58
-27 -3 3 0 5 6 5 6 0 9 12 6 28 l-4 27 15 -25 c8 -14 14 -19 15 -12z m-34 -42
c16 5 16 4 3 -5 -18 -12 -62 -3 -53 11 3 5 11 5 19 -2 7 -6 21 -8 31 -4z
m-116 -31 c11 -13 10 -14 -4 -9 -9 3 -16 10 -16 15 0 13 6 11 20 -6z m74 -56
c-3 -5 -9 -7 -14 -4 -4 3 -10 -2 -13 -10 -4 -10 -1 -12 11 -8 21 8 14 -1 -14
-15 -16 -9 -21 -8 -21 4 0 7 5 14 10 14 5 0 3 8 -4 17 -8 9 -9 14 -4 11 6 -4
17 -3 25 2 16 10 33 3 24 -11z m-74 -74 c7 -8 8 -15 2 -15 -5 0 -15 7 -22 15
-7 8 -8 15 -2 15 5 0 15 -7 22 -15z m0 -25 c13 -9 13 -11 0 -20 -19 -12 -27
-12 -35 0 -7 11 2 30 13 30 4 0 14 -5 22 -10z m570 -401 c0 -10 6 -24 14 -31
11 -12 10 -18 -9 -40 l-23 -27 -23 26 c-13 13 -23 26 -21 29 5 9 2 27 -5 21
-3 -4 -15 1 -26 10 -11 10 -17 13 -14 6 4 -6 3 -14 -3 -18 -5 -3 -10 -11 -10
-16 0 -6 5 -7 10 -4 19 12 10 -7 -12 -25 -13 -10 -27 -16 -32 -13 -5 3 2 12
15 19 13 7 18 13 10 14 -10 0 -11 3 -3 13 7 8 7 18 2 27 -6 8 -10 10 -10 4 0
-6 -18 -10 -39 -10 -43 1 -69 15 -30 17 125 4 160 7 164 10 12 12 45 3 45 -12z
m-369 -9 c10 6 19 9 19 6 0 -2 3 -13 6 -23 6 -15 4 -16 -7 -5 -7 6 -18 12 -23
12 -6 0 -3 -5 6 -11 9 -5 15 -16 12 -24 -4 -8 -10 -12 -15 -9 -5 3 -7 9 -4 14
3 5 -4 14 -15 20 -12 6 -18 16 -13 23 5 8 8 8 11 -1 2 -8 9 -9 23 -2z m129 -2
c0 -5 -4 -7 -8 -4 -4 2 -14 1 -22 -4 -9 -5 -20 -4 -30 3 -10 8 -9 5 3 -9 9
-11 14 -25 10 -29 -5 -5 0 -3 10 5 16 12 18 12 17 -1 -5 -35 0 -43 16 -23 14
17 15 17 10 1 -3 -10 -6 -24 -6 -30 0 -6 -13 2 -30 18 -16 15 -27 31 -25 35 3
5 -2 10 -10 14 -16 6 -29 -9 -20 -24 3 -5 2 -10 -3 -10 -19 0 -21 14 -5 32 10
12 12 18 4 18 -7 0 -10 3 -8 8 7 10 97 10 97 0z m64 -19 c3 -3 -6 -16 -21 -30
-14 -13 -23 -18 -19 -11 4 6 2 12 -3 12 -6 0 -11 5 -11 11 0 5 4 7 10 4 5 -3
18 -2 27 4 15 8 13 9 -10 7 -15 -1 -33 -10 -40 -20 -11 -15 -12 -14 -13 7 -2
21 3 23 36 23 21 -1 41 -4 44 -7z m36 -4 c-5 -7 -7 -14 -4 -18 3 -3 -4 -8 -15
-12 l-21 -6 22 -19 c19 -15 20 -20 9 -34 -10 -12 -17 -13 -26 -6 -26 21 -1
107 31 107 9 0 11 -4 4 -12z m-175 -55 c-3 -5 -10 -10 -16 -10 -5 0 -9 5 -9
10 0 6 7 10 16 10 8 0 12 -4 9 -10z"/>
<path d="M1353 1888 c2 -7 10 -12 17 -10 7 1 9 -4 6 -15 -3 -10 -2 -24 2 -31
7 -9 13 -7 27 9 12 13 14 19 6 17 -7 -2 -16 3 -19 11 -3 8 0 11 7 7 7 -5 9 -1
4 9 -5 13 -7 14 -14 3 -7 -10 -9 -10 -9 0 0 6 -7 12 -16 12 -9 0 -14 -6 -11
-12z m42 -38 c3 -5 1 -10 -4 -10 -6 0 -11 5 -11 10 0 6 2 10 4 10 3 0 8 -4 11
-10z"/>
<path d="M1235 1790 c-3 -5 -1 -10 4 -10 6 0 11 5 11 10 0 6 -2 10 -4 10 -3 0
-8 -4 -11 -10z"/>
<path d="M856 2788 c3 -5 10 -6 15 -3 13 9 11 12 -6 12 -8 0 -12 -4 -9 -9z"/>
<path d="M1057 2775 c3 -8 9 -12 14 -9 12 7 11 11 -5 17 -10 4 -13 1 -9 -8z"/>
<path d="M1090 2772 c0 -4 12 -8 28 -9 23 -1 24 -1 7 7 -26 11 -35 12 -35 2z"/>
<path d="M1303 2764 c0 -7 6 -10 14 -7 7 3 13 8 13 12 0 4 -6 8 -13 8 -8 0
-14 -6 -14 -13z"/>
<path d="M5550 2769 c0 -5 5 -7 10 -4 6 3 10 8 10 11 0 2 -4 4 -10 4 -5 0 -10
-5 -10 -11z"/>
<path d="M5706 2772 c-2 -4 4 -8 14 -8 10 0 16 4 14 8 -3 4 -9 8 -14 8 -5 0
-11 -4 -14 -8z"/>
<path d="M5779 2770 c-6 -4 1 -7 15 -7 14 0 26 3 26 7 0 3 -7 7 -15 7 -8 0
-19 -4 -26 -7z"/>
<path d="M5880 2766 c-5 -5 -10 -15 -10 -20 0 -6 5 -3 11 7 6 9 14 15 19 12 5
-3 11 -2 14 3 7 12 -21 11 -34 -2z"/>
<path d="M999 2758 c-5 -18 -6 -38 -1 -34 7 8 12 36 6 36 -2 0 -4 -1 -5 -2z"/>
<path d="M6035 2750 c-3 -5 -1 -10 4 -10 6 0 11 5 11 10 0 6 -2 10 -4 10 -3 0
-8 -4 -11 -10z"/>
<path d="M1024 2738 c3 -15 26 -23 26 -8 0 6 -4 9 -9 6 -5 -4 -12 -1 -14 4 -3
6 -4 5 -3 -2z"/>
<path d="M1081 2732 c-1 -13 -5 -21 -10 -17 -6 3 -19 -15 -30 -40 -11 -25 -27
-48 -35 -51 -9 -3 -14 -18 -14 -35 1 -25 4 -28 21 -23 13 4 17 2 13 -5 -5 -7
-1 -9 9 -5 9 4 14 13 11 21 -3 7 1 16 9 20 13 4 13 8 3 21 -11 13 -10 15 4 9
13 -4 15 -2 11 10 -4 10 -2 14 5 9 6 -3 13 -3 16 2 11 18 -29 7 -46 -12 -22
-27 -22 -18 0 33 10 22 22 38 25 35 9 -9 20 22 14 38 -3 7 -6 3 -6 -10z m-31
-124 c0 -4 -5 -10 -10 -13 -6 -4 -8 -10 -6 -14 3 -3 -3 -7 -13 -7 -12 0 -17 7
-16 21 1 11 3 21 4 22 3 5 41 -2 41 -9z"/>
<path d="M5853 2730 c4 -24 37 -43 37 -21 0 6 -7 7 -17 4 -9 -4 -14 -2 -10 3
3 6 1 16 -4 24 -7 11 -8 8 -6 -10z"/>
<path d="M3313 2725 c-13 -9 -23 -13 -23 -9 0 3 -7 1 -15 -6 -21 -18 -19 -41
5 -47 15 -4 18 -11 14 -27 -5 -22 -12 -99 -13 -147 -1 -18 -9 -29 -27 -38 -30
-13 -29 -42 2 -55 18 -8 22 -21 27 -80 7 -75 23 -100 62 -94 15 2 19 9 17 28
-15 117 -15 130 8 130 39 0 161 -76 212 -133 28 -31 58 -32 58 -2 0 35 -34 77
-95 118 l-65 44 45 29 c79 49 105 141 60 210 -15 24 -75 66 -100 70 -135 25
-149 25 -172 9z m161 -69 c93 -39 84 -146 -16 -195 -94 -45 -126 -16 -104 96
3 11 8 42 11 67 7 44 9 46 41 46 19 0 50 -6 68 -14z"/>
<path d="M5810 2730 c8 -5 20 -10 25 -10 6 0 3 5 -5 10 -8 5 -19 10 -25 10 -5
0 -3 -5 5 -10z"/>
<path d="M2998 2720 c-40 -24 -118 -190 -177 -382 -27 -86 -26 -96 4 -110 32
-14 41 -5 49 47 3 22 5 40 6 41 0 1 16 2 118 9 l92 6 0 -34 c0 -46 22 -64 56
-48 23 10 25 16 20 46 -4 20 -3 35 2 35 21 0 23 35 4 51 -13 10 -22 34 -26 65
-12 93 -18 119 -38 181 -12 39 -29 70 -45 83 -29 22 -40 24 -65 10z m57 -145
c8 -31 17 -86 20 -121 l7 -64 -56 0 c-66 0 -58 1 -96 -10 -36 -10 -37 -8 -6
72 54 145 90 208 109 189 5 -5 15 -35 22 -66z"/>
<path d="M3710 2720 c-12 -7 -16 -42 -18 -187 -4 -203 2 -273 27 -304 21 -26
67 -19 56 9 -4 10 -9 40 -11 67 -4 43 -1 56 24 94 l30 43 34 -53 c19 -30 50
-69 69 -87 65 -63 160 -68 167 -8 4 28 3 28 -40 22 -37 -5 -47 -3 -69 18 -31
28 -84 118 -93 157 -4 20 2 37 22 65 39 53 91 105 105 103 27 -3 37 2 37 19 0
20 -29 52 -47 52 -22 0 -150 -141 -227 -250 -17 -24 -17 -23 -12 74 3 55 10
104 16 110 18 18 11 42 -15 54 -31 14 -36 14 -55 2z"/>
<path d="M910 2705 c5 -6 8 -21 5 -34 -2 -12 0 -19 4 -17 5 3 8 16 7 28 -1 13
3 26 9 30 5 4 0 6 -12 5 -15 -1 -19 -5 -13 -12z"/>
<path d="M970 2716 c0 -3 9 -10 20 -16 11 -6 20 -8 20 -6 0 3 -9 10 -20 16
-11 6 -20 8 -20 6z"/>
<path d="M1020 2691 c-12 -24 -13 -34 -1 -27 9 6 22 46 15 46 -2 0 -8 -9 -14
-19z"/>
<path d="M833 2682 c2 -12 6 -24 10 -28 3 -4 4 4 2 16 -6 30 -16 40 -12 12z"/>
<path d="M967 2689 c7 -7 15 -10 18 -7 3 3 -2 9 -12 12 -14 6 -15 5 -6 -5z"/>
<path d="M5955 2691 c-6 -11 13 -26 22 -17 4 3 1 6 -6 6 -7 0 -9 5 -6 10 3 6
4 10 1 10 -3 0 -7 -4 -11 -9z"/>
<path d="M5930 2681 c0 -6 4 -13 10 -16 6 -3 7 1 4 9 -7 18 -14 21 -14 7z"/>
<path d="M5990 2676 c0 -2 7 -7 16 -10 8 -3 12 -2 9 4 -6 10 -25 14 -25 6z"/>
<path d="M947 2659 c-9 -6 -14 -15 -11 -21 5 -7 1 -9 -9 -5 -10 3 -17 2 -17
-4 0 -6 8 -9 18 -7 9 2 16 10 15 16 -2 7 4 12 12 12 8 0 15 5 15 10 0 12 0 12
-23 -1z"/>
<path d="M990 2658 c0 -9 -6 -18 -12 -21 -7 -2 -11 -7 -8 -10 3 -3 13 0 22 7
11 8 14 17 7 27 -7 12 -9 11 -9 -3z"/>
<path d="M5910 2650 c0 -5 5 -10 10 -10 6 0 10 5 10 10 0 6 -4 10 -10 10 -5 0
-10 -4 -10 -10z"/>
<path d="M5960 2646 c0 -9 -4 -15 -9 -11 -16 9 -22 -13 -10 -34 12 -17 15 -18
35 -4 13 8 28 12 33 9 5 -4 13 -1 17 5 5 8 3 9 -6 4 -10 -6 -12 -4 -6 10 7 18
6 18 -14 0 -11 -10 -20 -14 -20 -9 0 5 -4 3 -9 -5 -9 -14 -31 -7 -31 10 0 6 5
7 10 4 11 -7 26 22 16 32 -3 4 -6 -1 -6 -11z"/>
<path d="M736 2632 c-3 -5 1 -9 9 -9 8 0 12 4 9 9 -3 4 -7 8 -9 8 -2 0 -6 -4
-9 -8z"/>
<path d="M891 2614 c0 -11 3 -14 6 -6 3 7 2 16 -1 19 -3 4 -6 -2 -5 -13z"/>
<path d="M6150 2626 c0 -2 8 -10 18 -17 15 -13 16 -12 3 4 -13 16 -21 21 -21
13z"/>
<path d="M833 2605 c0 -8 4 -12 9 -9 5 3 6 10 3 15 -9 13 -12 11 -12 -6z"/>
<path d="M6042 2608 c-15 -15 -15 -28 -1 -28 5 0 8 4 4 9 -3 6 3 14 12 20 10
6 13 11 8 11 -6 0 -16 -5 -23 -12z"/>
<path d="M856 2593 c-6 -14 -5 -15 5 -6 7 7 10 15 7 18 -3 3 -9 -2 -12 -12z"/>
<path d="M686 2592 c-3 -5 1 -9 9 -9 8 0 12 4 9 9 -3 4 -7 8 -9 8 -2 0 -6 -4
-9 -8z"/>
<path d="M793 2583 c0 -9 4 -10 14 -2 7 6 13 12 13 14 0 1 -6 2 -13 2 -8 0
-14 -6 -14 -14z"/>
<path d="M910 2591 c0 -5 5 -13 10 -16 6 -3 10 -2 10 4 0 5 -4 13 -10 16 -5 3
-10 2 -10 -4z"/>
<path d="M891 2582 c-1 -8 -6 -10 -13 -6 -10 5 -10 4 -1 -6 15 -16 28 -8 20
12 -4 11 -6 11 -6 0z"/>
<path d="M5970 2575 c-7 -9 -8 -15 -2 -15 5 0 12 7 16 15 3 8 4 15 2 15 -2 0
-9 -7 -16 -15z"/>
<path d="M6010 2560 c9 -17 30 -20 30 -4 0 3 -4 2 -10 -1 -5 -3 -10 1 -10 9 0
9 -5 16 -10 16 -7 0 -7 -7 0 -20z"/>
<path d="M830 2551 c0 -6 4 -13 10 -16 6 -3 7 1 4 9 -7 18 -14 21 -14 7z"/>
<path d="M6062 2547 c10 -8 16 -16 13 -18 -2 -3 5 -5 15 -6 11 -1 20 2 20 8 0
5 -3 8 -7 7 -5 -1 -19 3 -33 10 -22 12 -23 11 -8 -1z"/>
<path d="M811 2534 c0 -11 3 -14 6 -6 3 7 2 16 -1 19 -3 4 -6 -2 -5 -13z"/>
<path d="M6030 2530 c-11 -7 -11 -10 -2 -10 7 0 10 -4 7 -10 -3 -6 1 -7 10 -4
10 4 15 2 13 -7 -2 -8 6 -14 20 -15 19 -1 19 -1 2 3 -11 2 -18 9 -15 14 4 5
-1 12 -9 15 -9 3 -13 10 -10 15 7 11 3 11 -16 -1z"/>
<path d="M653 2515 c0 -8 4 -12 9 -9 5 3 6 10 3 15 -9 13 -12 11 -12 -6z"/>
<path d="M716 2508 c3 -5 10 -6 15 -3 13 9 11 12 -6 12 -8 0 -12 -4 -9 -9z"/>
<path d="M830 2510 c0 -5 7 -7 15 -4 8 4 15 8 15 10 0 2 -7 4 -15 4 -8 0 -15
-4 -15 -10z"/>
<path d="M6125 2510 c-3 -6 1 -7 9 -4 18 7 21 14 7 14 -6 0 -13 -4 -16 -10z"/>
<path d="M802 2490 c-18 -29 -15 -38 4 -12 9 13 14 25 12 27 -2 2 -9 -5 -16
-15z"/>
<path d="M6136 2492 c-3 -5 1 -9 9 -9 8 0 12 4 9 9 -3 4 -7 8 -9 8 -2 0 -6 -4
-9 -8z"/>
<path d="M975 2459 c-4 -6 -5 -12 -2 -15 2 -3 7 2 10 11 7 17 1 20 -8 4z"/>
<path d="M6065 2459 c-4 -6 -5 -12 -2 -15 2 -3 7 2 10 11 7 17 1 20 -8 4z"/>
<path d="M6175 2460 c-4 -6 -11 -7 -17 -4 -7 4 -8 2 -4 -5 6 -9 11 -9 22 0 14
11 18 19 10 19 -3 0 -8 -5 -11 -10z"/>
<path d="M765 2450 c-3 -5 -1 -10 4 -10 6 0 11 5 11 10 0 6 -2 10 -4 10 -3 0
-8 -4 -11 -10z"/>
<path d="M6111 2444 c0 -11 3 -14 6 -6 3 7 2 16 -1 19 -3 4 -6 -2 -5 -13z"/>
<path d="M6072 2434 c-7 -8 -8 -14 -3 -14 10 0 25 19 20 25 -2 1 -10 -3 -17
-11z"/>
<path d="M790 2430 c0 -5 5 -10 10 -10 6 0 10 5 10 10 0 6 -4 10 -10 10 -5 0
-10 -4 -10 -10z"/>
<path d="M770 2413 c5 -2 10 -9 10 -14 0 -6 -4 -8 -8 -5 -4 2 -14 0 -22 -5
-11 -7 -8 -8 10 -6 26 4 35 28 12 33 -7 1 -8 0 -2 -3z"/>
<path d="M6080 2410 c-8 -5 -10 -10 -5 -10 6 0 17 5 25 10 8 5 11 10 5 10 -5
0 -17 -5 -25 -10z"/>
<path d="M6130 2416 c0 -2 7 -7 16 -10 8 -3 12 -2 9 4 -6 10 -25 14 -25 6z"/>
<path d="M6196 2412 c-3 -5 1 -9 9 -9 8 0 12 4 9 9 -3 4 -7 8 -9 8 -2 0 -6 -4
-9 -8z"/>
<path d="M925 2390 c-3 -6 1 -7 9 -4 18 7 21 14 7 14 -6 0 -13 -4 -16 -10z"/>
<path d="M6096 2392 c-3 -5 2 -16 12 -23 15 -13 16 -12 3 4 -12 15 -11 17 7
17 15 0 19 -5 15 -19 -7 -26 12 -35 28 -13 13 16 12 16 -4 2 -17 -13 -19 -12
-15 10 2 19 -2 26 -19 28 -11 2 -24 -1 -27 -6z"/>
<path d="M6176 2377 c3 -10 9 -15 12 -12 3 3 0 11 -7 18 -10 9 -11 8 -5 -6z"/>
<path d="M6224 2368 l-19 -23 23 19 c21 18 27 26 19 26 -2 0 -12 -10 -23 -22z"/>
<path d="M574 2372 c4 -3 14 -7 22 -8 9 -1 13 0 10 4 -4 3 -14 7 -22 8 -9 1
-13 0 -10 -4z"/>
<path d="M671 2357 c-8 -10 -7 -14 2 -14 8 0 14 6 14 14 0 7 -1 13 -2 13 -2 0
-8 -6 -14 -13z"/>
<path d="M735 2349 c-5 -8 -4 -10 3 -5 8 5 12 -1 13 -16 1 -18 2 -19 6 -4 6
23 -12 43 -22 25z"/>
<path d="M6180 2339 c0 -8 10 -20 23 -28 l22 -14 -20 24 c-11 13 -21 26 -22
28 -2 2 -3 -2 -3 -10z"/>
<path d="M586 2332 c-2 -4 4 -8 14 -8 10 0 16 4 14 8 -3 4 -9 8 -14 8 -5 0
-11 -4 -14 -8z"/>
<path d="M6140 2319 c0 -5 -4 -8 -9 -5 -4 3 -17 -1 -27 -9 -26 -19 -5 -43 23
-26 16 11 16 11 -4 6 -14 -4 -23 -2 -23 4 0 6 5 12 10 12 6 1 15 2 22 3 11 1
25 26 14 26 -3 0 -6 -5 -6 -11z"/>
<path d="M6236 2297 c3 -10 9 -15 12 -12 3 3 0 11 -7 18 -10 9 -11 8 -5 -6z"/>
<path d="M6167 2280 c13 -14 20 -17 30 -8 7 6 13 13 13 15 0 3 -6 0 -14 -6
-10 -9 -15 -8 -20 4 -3 8 -10 15 -16 15 -5 0 -2 -9 7 -20z"/>
<path d="M695 2280 c-4 -6 1 -7 11 -3 12 4 15 3 10 -5 -5 -8 -1 -10 11 -6 16
5 16 4 -1 -10 -11 -9 -15 -16 -9 -16 6 0 16 6 22 14 10 12 8 17 -8 25 -24 13
-28 14 -36 1z"/>
<path d="M6156 2256 c5 -20 4 -27 -4 -22 -7 4 -17 -3 -23 -18 -7 -14 -16 -23
-20 -20 -5 3 -9 1 -9 -4 0 -6 7 -12 15 -16 8 -3 14 -2 14 2 -3 20 2 33 11 27
6 -4 7 1 3 11 -4 12 -3 15 5 10 17 -10 26 19 13 41 -9 15 -10 13 -5 -11z"/>
<path d="M6231 2263 c7 -12 15 -20 18 -17 3 2 -3 12 -13 22 -17 16 -18 16 -5
-5z"/>
<path d="M649 2253 c-13 -16 -12 -17 4 -4 9 7 17 15 17 17 0 8 -8 3 -21 -13z"/>
<path d="M595 2251 c-3 -5 -2 -12 3 -15 5 -3 9 1 9 9 0 17 -3 19 -12 6z"/>
<path d="M6112 2235 c-6 -14 -10 -25 -8 -25 2 0 11 11 20 25 9 14 13 25 8 25
-5 0 -14 -11 -20 -25z"/>
<path d="M6202 2247 c-8 -10 -6 -13 7 -13 11 0 17 6 14 13 -3 7 -6 13 -8 13
-1 0 -7 -6 -13 -13z"/>
<path d="M802 2228 c-17 -17 -15 -31 2 -25 10 4 13 1 9 -8 -3 -8 -9 -12 -14
-9 -5 3 -9 0 -9 -5 0 -20 20 -11 32 14 6 13 16 21 22 18 6 -4 5 1 -3 10 -16
20 -23 21 -39 5z m28 -2 c0 -2 -7 -7 -16 -10 -8 -3 -12 -2 -9 4 6 10 25 14 25
6z"/>
<path d="M639 2225 c-1 -3 -2 -8 -3 -12 -1 -5 -5 -15 -10 -23 -7 -12 -6 -13 4
-3 13 12 23 43 14 43 -2 0 -5 -2 -5 -5z"/>
<path d="M670 2220 c8 -5 20 -10 25 -10 6 0 3 5 -5 10 -8 5 -19 10 -25 10 -5
0 -3 -5 5 -10z"/>
<path d="M590 2211 c0 -6 4 -13 10 -16 6 -3 7 1 4 9 -7 18 -14 21 -14 7z"/>
<path d="M6395 2211 c-3 -5 -2 -12 3 -15 5 -3 9 1 9 9 0 17 -3 19 -12 6z"/>
<path d="M6150 2190 c-8 -5 -10 -10 -5 -10 6 0 17 5 25 10 8 5 11 10 5 10 -5
0 -17 -5 -25 -10z"/>
<path d="M6196 2188 c3 -5 10 -6 15 -3 13 9 11 12 -6 12 -8 0 -12 -4 -9 -9z"/>
<path d="M550 2186 c0 -2 8 -10 18 -17 15 -13 16 -12 3 4 -13 16 -21 21 -21
13z"/>
<path d="M673 2174 c0 -7 4 -11 8 -8 4 2 10 -2 12 -8 4 -8 6 -7 6 3 1 9 -5 19
-12 22 -8 3 -14 -1 -14 -9z"/>
<path d="M740 2165 c0 -8 2 -15 4 -15 2 0 6 7 10 15 3 8 1 15 -4 15 -6 0 -10
-7 -10 -15z"/>
<path d="M6173 2166 c7 -18 -17 -28 -31 -14 -13 13 -32 2 -32 -18 0 -16 16
-19 25 -4 4 6 10 8 14 6 11 -7 34 11 37 28 1 9 -2 16 -8 16 -6 0 -8 -6 -5 -14z
m-33 -20 c0 -3 -4 -8 -10 -11 -5 -3 -10 -1 -10 4 0 6 5 11 10 11 6 0 10 -2 10
-4z"/>
<path d="M6225 2170 c-3 -6 1 -7 9 -4 18 7 21 14 7 14 -6 0 -13 -4 -16 -10z"/>
<path d="M533 2155 c0 -8 4 -12 9 -9 5 3 6 10 3 15 -9 13 -12 11 -12 -6z"/>
<path d="M765 2153 c-5 -10 -7 -24 -6 -30 1 -8 -5 -11 -16 -7 -17 5 -17 5 -1
-9 10 -8 15 -17 11 -20 -3 -4 -1 -7 5 -7 6 0 10 12 8 28 -1 15 2 33 7 40 5 7
8 15 5 18 -3 3 -9 -3 -13 -13z"/>
<path d="M712 2148 c2 -6 10 -13 16 -14 7 -1 8 0 2 3 -5 2 -8 9 -4 14 3 5 0 9
-6 9 -7 0 -10 -5 -8 -12z"/>
<path d="M647 2132 c-22 -24 -21 -32 1 -32 14 0 15 2 2 10 -13 8 -8 14 11 12
3 -1 6 6 6 14 0 18 -1 18 -20 -4z"/>
<path d="M6208 2143 c-10 -2 -18 -9 -18 -15 0 -6 3 -8 7 -5 3 4 11 3 17 -3 8
-6 12 -3 12 11 0 10 0 18 -1 18 0 -1 -8 -3 -17 -6z"/>
<path d="M6259 2123 c-13 -16 -12 -17 4 -4 16 13 21 21 13 21 -2 0 -10 -8 -17
-17z"/>
<path d="M6335 2130 c3 -5 8 -10 11 -10 2 0 4 5 4 10 0 6 -5 10 -11 10 -5 0
-7 -4 -4 -10z"/>
<path d="M695 2120 c-3 -6 1 -13 9 -16 9 -3 13 -10 10 -15 -3 -5 2 -12 10 -15
9 -3 14 -10 11 -14 -3 -5 -1 -11 4 -14 5 -4 8 2 7 11 -2 9 -8 19 -14 21 -7 2
-10 8 -6 13 3 5 -2 12 -10 15 -9 3 -13 10 -10 15 3 5 3 9 0 9 -3 0 -8 -5 -11
-10z"/>
<path d="M6135 2110 c-2 -3 -3 -15 -1 -26 3 -20 36 -34 36 -15 0 6 -6 8 -13 5
-8 -3 -13 4 -14 16 -1 11 2 18 6 16 4 -3 13 -1 21 4 11 7 9 9 -8 7 -13 -1 -25
-4 -27 -7z"/>
<path d="M596 2097 c3 -10 9 -15 12 -12 3 3 0 11 -7 18 -10 9 -11 8 -5 -6z"/>
<path d="M3264 2098 c-4 -7 -6 -33 -5 -60 2 -46 1 -48 -33 -62 -44 -18 -46
-34 -6 -49 l30 -11 0 -96 c0 -98 13 -140 45 -140 23 0 32 28 25 83 -4 29 -6
75 -5 102 4 67 4 67 13 61 14 -8 52 23 46 38 -3 8 -17 17 -30 20 -23 6 -25 10
-19 50 5 33 3 47 -10 59 -19 20 -41 22 -51 5z"/>
<path d="M6102 2096 c7 -8 15 -12 17 -11 5 6 -10 25 -20 25 -5 0 -4 -6 3 -14z"/>
<path d="M6176 2085 c4 -8 8 -15 10 -15 2 0 4 7 4 15 0 8 -4 15 -10 15 -5 0
-7 -7 -4 -15z"/>
<path d="M6216 2083 c-6 -14 -5 -15 5 -6 7 7 10 15 7 18 -3 3 -9 -2 -12 -12z"/>
<path d="M680 2058 c-10 -21 -10 -21 3 -6 8 10 18 14 22 10 5 -4 5 -1 1 6 -10
17 -14 15 -26 -10z"/>
<path d="M6175 2050 c-3 -5 -1 -10 4 -10 6 0 11 5 11 10 0 6 -2 10 -4 10 -3 0
-8 -4 -11 -10z"/>
<path d="M6200 2056 c0 -2 8 -10 18 -17 15 -13 16 -12 3 4 -13 16 -21 21 -21
13z"/>
<path d="M695 2041 c-3 -5 0 -13 6 -17 8 -5 9 -3 4 6 -6 10 -4 12 9 7 10 -4
15 -3 11 3 -8 13 -22 13 -30 1z"/>
<path d="M6355 2039 c-4 -6 -5 -12 -2 -15 2 -3 7 2 10 11 7 17 1 20 -8 4z"/>
<path d="M624 2032 c4 -3 14 -7 22 -8 9 -1 13 0 10 4 -4 3 -14 7 -22 8 -9 1
-13 0 -10 -4z"/>
<path d="M595 2021 c-3 -5 -2 -12 3 -15 5 -3 9 1 9 9 0 17 -3 19 -12 6z"/>
<path d="M675 2010 c1 -11 5 -23 10 -27 4 -5 4 -2 0 6 -6 11 -4 13 10 7 18 -7
18 -6 0 14 -22 25 -22 25 -20 0z"/>
<path d="M6158 2023 c7 -3 16 -2 19 1 4 3 -2 6 -13 5 -11 0 -14 -3 -6 -6z"/>
<path d="M6197 2020 c7 -8 20 -15 29 -16 9 -1 13 1 9 4 -4 4 -10 7 -13 7 -4 0
-14 4 -22 9 -12 7 -13 6 -3 -4z"/>
<path d="M6250 2011 c0 -6 4 -12 8 -15 5 -3 9 1 9 9 0 8 -4 15 -9 15 -4 0 -8
-4 -8 -9z"/>
<path d="M2712 1994 c-26 -18 -44 -56 -46 -97 -3 -50 68 -116 129 -121 5 -1
11 -9 13 -18 3 -14 -3 -18 -30 -18 -18 1 -44 7 -58 15 -34 19 -66 19 -74 -2
-7 -18 1 -26 59 -53 68 -33 143 -22 178 26 17 22 17 27 4 47 -8 12 -38 31 -67
42 -61 23 -89 54 -83 89 7 34 27 49 53 41 18 -6 21 -12 16 -40 -5 -25 -3 -34
10 -39 29 -11 44 -6 56 19 17 38 -5 80 -56 105 -51 24 -74 25 -104 4z"/>
<path d="M2988 1993 c-49 -31 -59 -95 -16 -109 11 -3 20 -4 21 -2 1 1 9 17 17
33 16 31 52 43 78 27 6 -5 15 -27 18 -50 l6 -42 -47 0 c-52 0 -119 -30 -135
-61 -36 -67 65 -133 153 -100 21 8 26 6 30 -10 7 -26 53 -26 62 1 3 11 6 62 7
113 0 113 -22 176 -71 201 -39 20 -89 20 -123 -1z m118 -205 c10 -16 -33 -48
-65 -48 -45 0 -57 14 -32 39 23 23 85 29 97 9z"/>
<path d="M3437 1992 c-25 -15 -37 -35 -43 -70 -3 -17 25 -44 44 -40 8 2 16 11
18 21 4 27 24 47 48 47 34 0 47 -15 53 -59 l6 -41 -47 0 c-111 0 -186 -87
-120 -139 34 -26 88 -36 129 -24 29 9 34 8 38 -8 6 -24 52 -26 61 -3 4 10 7
61 7 115 0 76 -4 108 -19 142 -31 69 -113 97 -175 59z m118 -202 c18 -30 -70
-65 -100 -40 -14 11 -14 15 0 29 17 19 90 27 100 11z"/>
<path d="M3687 2003 c-2 -5 -5 -33 -7 -63 -9 -168 -5 -192 41 -234 28 -25 37
-28 78 -22 l46 6 -1 -35 c-4 -79 -55 -106 -121 -65 -50 30 -86 4 -47 -35 30
-30 69 -43 123 -41 47 1 57 5 81 34 26 32 27 35 28 182 2 139 8 215 18 232 8
12 -30 25 -54 19 -22 -6 -24 -12 -26 -96 -4 -97 -18 -141 -49 -151 -34 -11
-50 18 -52 91 -1 36 2 89 5 118 5 34 3 55 -4 59 -14 10 -54 10 -59 1z"/>
<path d="M4030 1999 c-47 -17 -72 -89 -38 -110 22 -15 33 -10 48 24 10 22 23
33 40 35 37 3 51 -10 57 -57 l6 -41 -44 0 c-53 0 -123 -30 -139 -60 -36 -68
64 -134 153 -101 21 8 26 6 30 -10 6 -21 37 -25 55 -7 8 8 12 49 12 118 0 129
-20 183 -74 205 -40 17 -69 18 -106 4z m106 -211 c10 -16 -33 -48 -66 -48 -15
0 -33 6 -39 14 -10 11 -7 17 11 30 26 19 84 21 94 4z"/>
<path d="M5025 1999 c-9 -14 -2 -20 14 -10 8 6 9 11 3 15 -6 3 -14 1 -17 -5z"/>
<path d="M1815 1981 c-3 -5 -2 -12 3 -15 5 -3 9 1 9 9 0 17 -3 19 -12 6z"/>
<path d="M574 1966 c1 -8 5 -18 8 -22 4 -3 5 1 4 10 -1 8 -5 18 -8 22 -4 3 -5
-1 -4 -10z"/>
<path d="M1866 1968 c3 -4 9 -8 15 -8 5 0 9 4 9 8 0 5 -7 9 -15 9 -8 0 -12 -4
-9 -9z"/>
<path d="M674 1906 c2 -20 5 -39 8 -42 3 -3 5 11 3 31 -1 19 -4 38 -8 41 -3 3
-4 -11 -3 -30z"/>
<path d="M6216 1928 c3 -5 10 -6 15 -3 13 9 11 12 -6 12 -8 0 -12 -4 -9 -9z"/>
<path d="M1715 1920 c-4 -6 -11 -7 -17 -4 -7 4 -8 2 -4 -5 6 -9 11 -9 22 0 14
11 18 19 10 19 -3 0 -8 -5 -11 -10z"/>
<path d="M573 1905 c0 -8 4 -12 9 -9 5 3 6 10 3 15 -9 13 -12 11 -12 -6z"/>
<path d="M1670 1911 c0 -10 29 -36 34 -30 1 2 -6 12 -16 22 -10 9 -18 13 -18
8z"/>
<path d="M6114 1912 c3 -5 0 -13 -6 -15 -9 -4 -10 -6 -1 -6 17 -1 25 16 12 25
-7 4 -9 3 -5 -4z"/>
<path d="M6290 1911 c0 -6 4 -13 10 -16 6 -3 7 1 4 9 -7 18 -14 21 -14 7z"/>
<path d="M1650 1895 c0 -8 4 -15 10 -15 5 0 7 7 4 15 -4 8 -8 15 -10 15 -2 0
-4 -7 -4 -15z"/>
<path d="M5585 1888 c1 -12 7 -24 13 -26 7 -2 9 -9 5 -15 -3 -7 -3 -9 2 -5 4
4 15 2 23 -5 12 -9 16 -9 19 1 7 19 24 14 21 -5 -2 -12 3 -18 15 -16 12 0 16
-4 13 -13 -3 -8 -1 -14 5 -14 7 0 9 11 5 28 -6 26 -6 26 9 8 8 -11 16 -15 16
-8 3 26 4 31 12 38 4 4 7 2 7 -4 0 -7 5 -11 11 -9 6 1 13 -3 16 -9 2 -7 -4
-11 -14 -10 -13 1 -17 -5 -15 -19 2 -11 4 -26 4 -32 1 -7 5 -13 10 -13 12 0
10 24 -4 38 -6 6 -9 15 -5 19 4 3 13 -2 20 -12 8 -10 20 -15 28 -12 10 4 9 6
-3 6 -21 1 -24 21 -4 21 8 0 21 -8 28 -18 14 -19 38 -37 38 -28 0 3 -12 17
-27 31 -32 29 -21 33 20 7 15 -10 24 -22 20 -26 -4 -4 1 -4 12 -1 20 7 20 6 1
-9 -11 -9 -15 -16 -9 -16 6 0 16 6 22 14 10 12 7 18 -18 31 -35 18 -38 27 -15
46 15 12 16 11 9 -10 -5 -17 -4 -21 5 -16 7 4 9 17 6 31 -5 18 -3 22 8 18 8
-3 17 0 22 7 4 8 3 10 -5 5 -6 -4 -18 -3 -25 3 -15 13 -42 -11 -32 -28 4 -5 2
-12 -4 -16 -9 -5 -14 7 -11 27 0 4 -7 4 -16 1 -10 -4 -14 -2 -9 5 3 6 1 14 -5
18 -8 4 -9 3 -5 -4 4 -7 3 -12 -3 -12 -5 0 -11 3 -14 8 -2 4 -2 1 0 -7 2 -9
-2 -11 -13 -7 -8 3 -19 6 -22 6 -4 0 -1 4 7 9 10 6 2 9 -23 9 -21 0 -34 -3
-31 -6 6 -7 11 -8 37 -11 7 -1 4 -9 -7 -21 -10 -11 -22 -17 -27 -14 -5 3 -1
12 9 19 16 12 14 13 -17 10 -22 -3 -30 -1 -21 4 9 6 10 11 2 15 -6 4 -11 1
-11 -6 0 -9 -3 -9 -10 2 -5 8 -10 10 -10 5 0 -6 5 -16 11 -22 9 -9 7 -12 -9
-10 -17 1 -21 6 -17 26 3 18 1 21 -7 13 -7 -7 -17 -8 -28 -2 -13 7 -16 5 -15
-12z m41 -17 c0 -9 5 -15 12 -13 8 1 11 -2 6 -9 -5 -9 -12 -6 -24 9 -10 12
-21 18 -25 14 -5 -4 -5 -2 -2 4 9 16 34 13 33 -5z m247 4 c-3 -9 -8 -14 -10
-11 -3 3 -2 9 2 15 9 16 15 13 8 -4z m-176 -20 c0 -17 -13 -20 -21 -6 -4 5 0
12 6 14 7 3 13 6 14 6 0 1 1 -6 1 -14z m124 6 c4 -1 9 -7 12 -14 7 -18 -33
-16 -61 4 l-23 17 33 -3 c18 -2 36 -3 39 -4z"/>
<path d="M5795 1850 c3 -5 8 -10 11 -10 2 0 4 5 4 10 0 6 -5 10 -11 10 -5 0
-7 -4 -4 -10z"/>
<path d="M6140 1906 c0 -2 7 -7 16 -10 8 -3 12 -2 9 4 -6 10 -25 14 -25 6z"/>
<path d="M6216 1897 c3 -10 9 -15 12 -12 3 3 0 11 -7 18 -10 9 -11 8 -5 -6z"/>
<path d="M1585 1880 c-10 -11 -16 -23 -12 -26 3 -3 10 4 17 15 11 22 32 29 28
9 -2 -6 6 -13 17 -15 18 -3 18 -2 2 5 -10 4 -18 12 -17 17 3 18 -17 15 -35 -5z"/>
<path d="M1853 1881 c0 -11 5 -18 9 -15 4 3 5 11 1 19 -7 21 -12 19 -10 -4z"/>
<path d="M5198 1893 c7 -3 16 -2 19 1 4 3 -2 6 -13 5 -11 0 -14 -3 -6 -6z"/>
<path d="M1755 1881 c-3 -5 -2 -12 3 -15 5 -3 9 1 9 9 0 17 -3 19 -12 6z"/>
<path d="M6076 1877 c3 -10 9 -15 12 -12 3 3 0 11 -7 18 -10 9 -11 8 -5 -6z"/>
<path d="M616 1872 c-3 -5 1 -9 9 -9 8 0 12 4 9 9 -3 4 -7 8 -9 8 -2 0 -6 -4
-9 -8z"/>
<path d="M790 1870 c0 -5 5 -10 10 -10 6 0 10 5 10 10 0 6 -4 10 -10 10 -5 0
-10 -4 -10 -10z"/>
<path d="M930 1871 c0 -5 -11 -8 -24 -7 -17 2 -23 -1 -19 -10 6 -17 23 -18 23
-1 1 6 8 1 16 -13 9 -15 13 -17 10 -6 -4 10 -1 25 5 32 8 10 8 14 0 14 -6 0
-11 -4 -11 -9z"/>
<path d="M5145 1870 c-3 -6 1 -7 9 -4 18 7 21 14 7 14 -6 0 -13 -4 -16 -10z"/>
<path d="M6030 1870 c8 -5 17 -7 21 -4 6 3 21 -20 23 -38 1 -3 4 -9 8 -13 10
-10 4 17 -9 40 -6 11 -22 21 -35 22 -17 2 -19 0 -8 -7z"/>
<path d="M6150 1876 c0 -2 7 -7 16 -10 8 -3 12 -2 9 4 -6 10 -25 14 -25 6z"/>
<path d="M1668 1863 c7 -3 16 -2 19 1 4 3 -2 6 -13 5 -11 0 -14 -3 -6 -6z"/>
<path d="M5913 1863 c-7 -2 -13 -9 -13 -14 0 -6 5 -7 10 -4 6 3 13 -1 16 -9 3
-9 11 -16 17 -16 5 0 2 9 -8 20 -20 22 -8 28 15 8 12 -11 12 -10 1 5 -14 18
-18 19 -38 10z"/>
<path d="M832 1846 c7 -8 15 -12 17 -11 5 6 -10 25 -20 25 -5 0 -4 -6 3 -14z"/>
<path d="M950 1852 c0 -5 7 -9 15 -9 8 0 15 4 15 9 0 4 -7 8 -15 8 -8 0 -15
-4 -15 -8z"/>
<path d="M1545 1850 c-3 -5 -1 -10 4 -10 6 0 11 5 11 10 0 6 -2 10 -4 10 -3 0
-8 -4 -11 -10z"/>
<path d="M1594 1845 c-4 -8 -11 -12 -18 -8 -6 3 -8 2 -3 -2 4 -5 19 -9 33 -10
21 -1 23 1 10 11 -9 6 -13 14 -9 17 3 4 3 7 -1 7 -3 0 -9 -7 -12 -15z"/>
<path d="M5210 1850 c0 -5 3 -9 8 -8 4 1 18 -4 32 -11 l25 -12 -25 20 c-28 23
-40 26 -40 11z"/>
<path d="M5970 1850 c0 -5 5 -10 10 -10 6 0 10 5 10 10 0 6 -4 10 -10 10 -5 0
-10 -4 -10 -10z"/>
<path d="M6026 1847 c3 -10 9 -15 12 -12 3 3 0 11 -7 18 -10 9 -11 8 -5 -6z"/>
<path d="M795 1839 c-4 -6 -5 -12 -2 -15 2 -3 7 2 10 11 7 17 1 20 -8 4z"/>
<path d="M870 1845 c0 -5 5 -17 10 -25 5 -8 10 -10 10 -5 0 6 -5 17 -10 25 -5
8 -10 11 -10 5z"/>
<path d="M1670 1840 c-11 -7 -11 -10 -2 -10 7 0 10 -4 7 -10 -4 -6 1 -7 11 -3
11 4 13 8 6 11 -7 2 -10 8 -6 13 7 11 3 11 -16 -1z"/>
<path d="M1815 1841 c-3 -5 -2 -12 3 -15 5 -3 9 1 9 9 0 17 -3 19 -12 6z"/>
<path d="M704 1832 c4 -3 14 -7 22 -8 9 -1 13 0 10 4 -4 3 -14 7 -22 8 -9 1
-13 0 -10 -4z"/>
<path d="M819 1838 c0 -2 -2 -13 -3 -25 -2 -15 1 -20 8 -14 6 5 19 7 29 6 9
-2 17 1 17 6 0 6 -6 9 -12 8 -26 -3 -39 1 -33 11 3 6 4 10 1 10 -3 0 -6 -1 -7
-2z"/>
<path d="M6145 1830 c-3 -6 1 -7 9 -4 18 7 21 14 7 14 -6 0 -13 -4 -16 -10z"/>
<path d="M6210 1830 c0 -5 5 -10 11 -10 5 0 7 5 4 10 -3 6 -8 10 -11 10 -2 0
-4 -4 -4 -10z"/>
<path d="M910 1815 c0 -8 4 -15 10 -15 5 0 7 7 4 15 -4 8 -8 15 -10 15 -2 0
-4 -7 -4 -15z"/>
<path d="M950 1820 c0 -5 7 -7 15 -4 8 4 15 8 15 10 0 2 -7 4 -15 4 -8 0 -15
-4 -15 -10z"/>
<path d="M1532 1810 c0 -14 2 -19 5 -12 2 6 2 18 0 25 -3 6 -5 1 -5 -13z"/>
<path d="M5073 1815 c0 -8 4 -12 9 -9 5 3 6 10 3 15 -9 13 -12 11 -12 -6z"/>
<path d="M5109 1813 c-13 -16 -12 -17 4 -4 16 13 21 21 13 21 -2 0 -10 -8 -17
-17z"/>
<path d="M5195 1820 c-4 -6 -11 -7 -17 -4 -7 5 -8 2 -4 -5 5 -7 10 -10 13 -7
3 3 15 1 27 -5 19 -9 19 -9 4 4 -10 8 -15 17 -11 20 3 4 4 7 0 7 -3 0 -9 -5
-12 -10z"/>
<path d="M5901 1821 c-11 -7 -9 -10 8 -16 13 -4 25 -4 28 -1 4 3 -1 6 -11 6
-9 0 -14 5 -11 10 8 12 4 12 -14 1z"/>
<path d="M5961 1823 c-1 -6 -4 -20 -7 -30 -5 -17 -5 -17 6 0 6 10 9 23 6 30
-3 9 -5 9 -5 0z"/>
<path d="M1492 1806 c7 -8 15 -12 17 -11 5 6 -10 25 -20 25 -5 0 -4 -6 3 -14z"/>
<path d="M5039 1818 c-5 -18 -6 -38 -1 -34 7 8 12 36 6 36 -2 0 -4 -1 -5 -2z"/>
<path d="M5310 1810 c0 -5 7 -7 15 -4 8 4 15 8 15 10 0 2 -7 4 -15 4 -8 0 -15
-4 -15 -10z"/>
<path d="M6010 1810 c0 -5 5 -10 10 -10 6 0 10 5 10 10 0 6 -4 10 -10 10 -5 0
-10 -4 -10 -10z"/>
<path d="M6046 1811 c-3 -5 1 -11 9 -14 9 -4 12 -1 8 9 -6 16 -10 17 -17 5z"/>
<path d="M750 1806 c0 -2 8 -10 18 -17 15 -13 16 -12 3 4 -13 16 -21 21 -21
13z"/>
<path d="M5270 1800 c8 -5 20 -10 25 -10 6 0 3 5 -5 10 -8 5 -19 10 -25 10 -5
0 -3 -5 5 -10z"/>
<path d="M933 1782 c-3 -7 -3 -16 1 -19 3 -4 6 0 6 8 0 8 9 15 20 16 13 1 18
-2 14 -9 -4 -7 -2 -8 5 -4 6 4 9 11 6 16 -8 13 -47 7 -52 -8z"/>
<path d="M1550 1789 c0 -5 5 -7 10 -4 6 3 10 8 10 11 0 2 -4 4 -10 4 -5 0 -10
-5 -10 -11z"/>
<path d="M1630 1793 c0 -5 5 -15 10 -23 7 -12 9 -10 7 8 -1 19 -17 33 -17 15z"/>
<path d="M5325 1789 c-5 -8 -4 -10 0 -6 5 4 15 -3 22 -15 7 -13 12 -18 13 -12
0 5 -6 18 -13 29 -12 15 -15 16 -22 4z"/>
<path d="M5415 1790 c-8 -13 5 -13 25 0 13 8 13 10 -2 10 -9 0 -20 -4 -23 -10z"/>
<path d="M5727 1784 c5 -13 3 -15 -7 -9 -9 5 -11 4 -6 -3 4 -7 11 -12 17 -12
12 0 12 27 -1 35 -6 4 -7 -1 -3 -11z"/>
<path d="M5975 1789 c-4 -6 -5 -12 -2 -15 2 -3 7 2 10 11 7 17 1 20 -8 4z"/>
<path d="M6216 1792 c-3 -5 1 -9 9 -9 8 0 12 4 9 9 -3 4 -7 8 -9 8 -2 0 -6 -4
-9 -8z"/>
<path d="M794 1776 c1 -8 5 -18 8 -22 4 -3 5 1 4 10 -1 8 -5 18 -8 22 -4 3 -5
-1 -4 -10z"/>
<path d="M877 1779 c7 -7 15 -10 18 -7 3 3 -2 9 -12 12 -14 6 -15 5 -6 -5z"/>
<path d="M1441 1778 c-1 -20 14 -24 25 -6 4 6 3 8 -4 4 -5 -3 -13 0 -15 6 -3
8 -6 6 -6 -4z"/>
<path d="M996 1772 c-2 -4 0 -14 6 -22 8 -12 9 -11 4 4 -5 14 -2 17 9 12 9 -3
13 -2 10 4 -7 12 -22 13 -29 2z"/>
<path d="M1090 1776 c0 -2 7 -7 16 -10 8 -3 12 -2 9 4 -6 10 -25 14 -25 6z"/>
<path d="M1520 1766 c0 -8 4 -17 9 -20 5 -4 7 3 4 14 -6 23 -13 26 -13 6z"/>
<path d="M1777 1765 c-4 -8 -3 -16 1 -19 4 -3 9 4 9 15 2 23 -3 25 -10 4z"/>
<path d="M5291 1763 c0 -11 3 -13 6 -5 2 6 10 9 15 6 7 -4 8 -2 4 4 -11 18
-26 14 -25 -5z"/>
<path d="M5430 1770 c-8 -5 -10 -10 -5 -10 6 0 17 5 25 10 8 5 11 10 5 10 -5
0 -17 -5 -25 -10z"/>
<path d="M5800 1765 c0 -8 -6 -14 -12 -12 -7 1 -13 -7 -14 -18 -1 -15 0 -16 3
-2 3 9 8 15 13 12 5 -3 14 4 20 15 7 13 7 20 0 20 -5 0 -10 -7 -10 -15z"/>
<path d="M5925 1770 c3 -5 8 -10 11 -10 2 0 4 5 4 10 0 6 -5 10 -11 10 -5 0
-7 -4 -4 -10z"/>
<path d="M5994 1751 c1 -16 3 -32 6 -35 3 -3 5 8 5 24 0 16 -3 31 -6 34 -3 3
-5 -7 -5 -23z"/>
<path d="M6046 1768 c3 -4 9 -8 15 -8 5 0 9 4 9 8 0 5 -7 9 -15 9 -8 0 -12 -4
-9 -9z"/>
<path d="M6080 1776 c0 -2 8 -10 18 -17 15 -13 16 -12 3 4 -13 16 -21 21 -21
13z"/>
<path d="M829 1753 c-13 -16 -12 -17 4 -4 9 7 17 15 17 17 0 8 -8 3 -21 -13z"/>
<path d="M1072 1762 c2 -8 8 -13 13 -12 5 1 13 -7 17 -17 7 -17 8 -17 5 0 -1
10 -6 17 -11 17 -5 -1 -13 4 -18 12 -8 11 -9 11 -6 0z"/>
<path d="M975 1751 c6 -10 2 -12 -16 -6 -27 8 -24 3 8 -14 17 -9 21 -8 19 4
-1 8 -6 18 -11 22 -4 4 -5 2 0 -6z"/>
<path d="M1473 1754 c3 -3 2 -16 -3 -28 -6 -17 -4 -22 11 -22 12 0 15 4 8 12
-5 6 -7 19 -3 28 4 10 1 16 -7 16 -7 0 -10 -3 -6 -6z"/>
<path d="M5390 1750 c0 -5 5 -10 10 -10 6 0 10 5 10 10 0 6 -4 10 -10 10 -5 0
-10 -4 -10 -10z"/>
<path d="M5637 1745 c-4 -8 -3 -16 1 -19 4 -3 9 4 9 15 2 23 -3 25 -10 4z"/>
<path d="M5914 1746 c1 -8 5 -18 8 -22 4 -3 5 1 4 10 -1 8 -5 18 -8 22 -4 3
-5 -1 -4 -10z"/>
<path d="M851 1737 c-8 -10 -7 -14 2 -14 8 0 14 6 14 14 0 7 -1 13 -2 13 -2 0
-8 -6 -14 -13z"/>
<path d="M1314 1738 c-4 -5 -3 -12 0 -15 3 -4 6 -1 6 6 0 7 4 10 9 6 5 -3 12
-2 15 3 3 5 -2 9 -10 9 -8 0 -17 -4 -20 -9z"/>
<path d="M5251 1737 c-8 -10 -7 -14 2 -14 8 0 14 6 14 14 0 7 -1 13 -2 13 -2
0 -8 -6 -14 -13z"/>
<path d="M5319 1737 c8 -9 16 -15 19 -12 3 3 15 -3 26 -12 20 -17 20 -17 6 1
-14 18 -13 19 3 13 11 -4 16 -3 12 3 -3 5 -16 8 -28 6 -12 -2 -29 2 -37 8 -13
10 -13 9 -1 -7z"/>
<path d="M5704 1733 c-10 -7 -13 -13 -7 -13 7 0 15 5 18 10 4 6 10 8 15 5 5
-3 11 -2 14 3 8 13 -19 10 -40 -5z"/>
<path d="M5890 1736 c0 -8 4 -17 9 -20 5 -4 7 3 4 14 -6 23 -13 26 -13 6z"/>
<path d="M6189 1733 c-13 -16 -12 -17 4 -4 16 13 21 21 13 21 -2 0 -10 -8 -17
-17z"/>
<path d="M1050 1729 c0 -5 4 -8 9 -4 6 3 14 -3 20 -12 6 -10 11 -13 11 -7 0
12 -20 34 -32 34 -4 0 -8 -5 -8 -11z"/>
<path d="M1171 1737 c2 -1 14 -10 26 -20 17 -15 23 -16 29 -5 4 7 4 10 -1 6
-4 -4 -14 -1 -22 7 -8 8 -19 15 -25 15 -6 0 -9 -1 -7 -3z"/>
<path d="M1420 1730 c-12 -7 -10 -9 7 -7 12 0 19 5 17 9 -6 10 -6 10 -24 -2z"/>
<path d="M1694 1726 c1 -8 5 -18 8 -22 4 -3 5 1 4 10 -1 8 -5 18 -8 22 -4 3
-5 -1 -4 -10z"/>
<path d="M5450 1729 c0 -5 4 -8 9 -4 6 3 14 -3 20 -12 6 -10 11 -13 11 -7 0
12 -20 34 -32 34 -4 0 -8 -5 -8 -11z"/>
<path d="M5507 1734 c-4 -4 -7 -12 -7 -18 0 -6 5 -4 10 4 9 13 11 13 21 0 9
-12 10 -12 7 -1 -5 17 -21 25 -31 15z"/>
<path d="M5802 1728 c-7 -7 -12 -17 -12 -22 0 -6 5 -3 11 7 6 9 14 15 20 12 5
-4 9 -1 9 4 0 14 -13 14 -28 -1z"/>
<path d="M5840 1736 c0 -2 7 -7 16 -10 8 -3 12 -2 9 4 -6 10 -25 14 -25 6z"/>
<path d="M6056 1728 c3 -5 10 -6 15 -3 13 9 11 12 -6 12 -8 0 -12 -4 -9 -9z"/>
<path d="M909 1713 c-13 -16 -12 -17 4 -4 9 7 17 15 17 17 0 8 -8 3 -21 -13z"/>
<path d="M1141 1726 c2 -2 15 -9 29 -15 24 -11 24 -11 6 3 -16 13 -49 24 -35
12z"/>
<path d="M1513 1715 c0 -7 6 -11 14 -8 7 3 13 6 13 8 0 2 -6 5 -13 8 -8 3 -14
-1 -14 -8z"/>
<path d="M5553 1715 c0 -8 4 -12 9 -9 5 3 6 10 3 15 -9 13 -12 11 -12 -6z"/>
<path d="M5592 1721 c-10 -6 -9 -10 7 -14 12 -3 24 0 28 5 3 6 1 8 -5 4 -5 -3
-12 -2 -14 4 -2 5 -9 6 -16 1z"/>
<path d="M775 1710 c3 -5 8 -10 11 -10 2 0 4 5 4 10 0 6 -5 10 -11 10 -5 0 -7
-4 -4 -10z"/>
<path d="M1280 1716 c0 -2 7 -7 16 -10 8 -3 12 -2 9 4 -6 10 -25 14 -25 6z"/>
<path d="M1337 1699 c4 -13 8 -18 11 -10 2 7 -1 18 -6 23 -8 8 -9 4 -5 -13z"/>
<path d="M5279 1718 c-5 -18 -6 -38 -1 -34 7 8 12 36 6 36 -2 0 -4 -1 -5 -2z"/>
<path d="M5644 1704 c-18 -14 -18 -15 4 -4 12 6 22 13 22 15 0 8 -5 6 -26 -11z"/>
<path d="M5732 1715 c4 -4 0 -13 -8 -20 -15 -11 -15 -12 -1 -12 20 0 30 24 14
33 -7 4 -9 4 -5 -1z"/>
<path d="M929 1693 c-13 -16 -12 -17 4 -4 9 7 17 15 17 17 0 8 -8 3 -21 -13z"/>
<path d="M1102 1690 c0 -14 2 -19 5 -12 2 6 2 18 0 25 -3 6 -5 1 -5 -13z"/>
<path d="M5393 1695 c0 -8 4 -12 9 -9 5 3 6 10 3 15 -9 13 -12 11 -12 -6z"/>
<path d="M5674 1699 c-3 -6 1 -17 10 -25 9 -8 12 -9 7 -3 -5 6 -7 18 -4 25 6
17 -3 19 -13 3z"/>
<path d="M1158 1682 c-3 -11 0 -19 7 -19 7 0 10 8 7 19 -2 10 -6 18 -7 18 -1
0 -5 -8 -7 -18z"/>
<path d="M1230 1690 c0 -5 5 -10 11 -10 5 0 7 5 4 10 -3 6 -8 10 -11 10 -2 0
-4 -4 -4 -10z"/>
<path d="M1366 1691 c-3 -5 1 -11 9 -14 9 -4 12 -1 8 9 -6 16 -10 17 -17 5z"/>
<path d="M5187 1689 c7 -7 15 -10 18 -7 3 3 -2 9 -12 12 -14 6 -15 5 -6 -5z"/>
<path d="M5496 1684 c-4 -11 -1 -12 13 -5 11 7 22 7 29 1 9 -7 9 -7 2 2 -14
17 -38 18 -44 2z"/>
<path d="M5565 1690 c-3 -6 1 -7 9 -4 18 7 21 14 7 14 -6 0 -13 -4 -16 -10z"/>
<path d="M5773 1685 c0 -8 4 -12 9 -9 5 3 16 0 25 -8 12 -9 15 -9 9 -1 -12 22
-43 34 -43 18z"/>
<path d="M5843 1693 c-7 -3 -13 -9 -13 -15 0 -7 4 -7 13 -1 6 6 27 9 44 8 18
-1 30 1 27 4 -7 7 -54 9 -71 4z"/>
<path d="M1039 1688 c-5 -18 -6 -38 -1 -34 7 8 12 36 6 36 -2 0 -4 -1 -5 -2z"/>
<path d="M1069 1673 c-13 -16 -12 -17 4 -4 9 7 17 15 17 17 0 8 -8 3 -21 -13z"/>
<path d="M993 1663 c0 -9 4 -10 14 -2 7 6 13 12 13 14 0 1 -6 2 -13 2 -8 0
-14 -6 -14 -14z"/>
<path d="M1266 1666 c5 -12 4 -17 -3 -13 -5 3 -10 -1 -10 -9 0 -13 2 -13 16 0
12 13 13 18 2 28 -10 11 -11 9 -5 -6z"/>
<path d="M1310 1672 c0 -5 10 -17 23 -28 22 -19 22 -19 4 2 -9 11 -14 24 -10
27 3 4 1 7 -5 7 -7 0 -12 -4 -12 -8z"/>
<path d="M6010 1669 c0 -5 5 -7 10 -4 6 3 10 8 10 11 0 2 -4 4 -10 4 -5 0 -10
-5 -10 -11z"/>
<path d="M1413 1655 c0 -8 3 -13 5 -10 3 3 12 -1 21 -7 10 -8 9 -4 -3 10 -23
26 -23 26 -23 7z"/>
<path d="M5233 1655 c0 -8 4 -12 9 -9 5 3 6 10 3 15 -9 13 -12 11 -12 -6z"/>
<path d="M5455 1660 c-4 -6 -10 -8 -15 -5 -5 3 -11 2 -14 -3 -2 -4 6 -8 18 -8
12 0 23 6 23 13 0 16 -4 16 -12 3z"/>
<path d="M5855 1659 c-4 -6 -5 -12 -2 -15 2 -3 7 2 10 11 7 17 1 20 -8 4z"/>
<path d="M850 1650 c0 -5 5 -10 11 -10 5 0 7 5 4 10 -3 6 -8 10 -11 10 -2 0
-4 -4 -4 -10z"/>
<path d="M1636 1648 c3 -5 10 -6 15 -3 13 9 11 12 -6 12 -8 0 -12 -4 -9 -9z"/>
<path d="M5131 1657 c2 -1 13 -9 24 -17 19 -14 19 -14 6 3 -7 9 -18 17 -24 17
-6 0 -8 -1 -6 -3z"/>
<path d="M5970 1650 c0 -5 5 -10 11 -10 5 0 7 5 4 10 -3 6 -8 10 -11 10 -2 0
-4 -4 -4 -10z"/>
<path d="M970 1629 c0 -5 5 -7 10 -4 6 3 10 8 10 11 0 2 -4 4 -10 4 -5 0 -10
-5 -10 -11z"/>
<path d="M1160 1625 c-7 -9 -11 -17 -9 -20 3 -2 10 5 17 15 14 24 10 26 -8 5z"/>
<path d="M1535 1630 c-3 -5 -1 -10 4 -10 6 0 11 5 11 10 0 6 -2 10 -4 10 -3 0
-8 -4 -11 -10z"/>
<path d="M1215 1620 c-4 -6 -10 -8 -15 -5 -5 3 -11 1 -14 -4 -8 -13 22 -7 36
7 7 7 9 12 6 12 -4 0 -10 -5 -13 -10z"/>
<path d="M5416 1617 c3 -10 9 -15 12 -12 3 3 0 11 -7 18 -10 9 -11 8 -5 -6z"/>
<path d="M910 1609 c0 -5 5 -7 10 -4 6 3 10 8 10 11 0 2 -4 4 -10 4 -5 0 -10
-5 -10 -11z"/>
<path d="M1274 1613 c2 -2 10 -5 18 -7 7 -1 18 -5 24 -8 6 -4 11 -2 11 5 0 7
-13 13 -29 14 -16 0 -27 -1 -24 -4z"/>
<path d="M5294 1606 c1 -8 5 -18 8 -22 4 -3 5 1 4 10 -1 8 -5 18 -8 22 -4 3
-5 -1 -4 -10z"/>
<path d="M5446 1608 c3 -5 10 -6 15 -3 13 9 11 12 -6 12 -8 0 -12 -4 -9 -9z"/>
<path d="M6030 1611 c0 -6 4 -13 10 -16 6 -3 7 1 4 9 -7 18 -14 21 -14 7z"/>
<path d="M5815 1601 c-3 -5 -2 -12 3 -15 5 -3 9 1 9 9 0 17 -3 19 -12 6z"/>
<path d="M1430 1595 c0 -7 30 -13 34 -7 3 4 -4 9 -15 9 -10 1 -19 0 -19 -2z"/>
<path d="M5610 1589 c0 -5 5 -7 10 -4 6 3 10 8 10 11 0 2 -4 4 -10 4 -5 0 -10
-5 -10 -11z"/>
<path d="M1190 1586 c0 -2 8 -10 18 -17 15 -13 16 -12 3 4 -13 16 -21 21 -21
13z"/>
<path d="M1076 1572 c-3 -5 1 -9 9 -9 8 0 12 4 9 9 -3 4 -7 8 -9 8 -2 0 -6 -4
-9 -8z"/>
<path d="M5116 1572 c-3 -5 1 -9 9 -9 8 0 12 4 9 9 -3 4 -7 8 -9 8 -2 0 -6 -4
-9 -8z"/>
<path d="M5676 1572 c-3 -5 1 -9 9 -9 8 0 12 4 9 9 -3 4 -7 8 -9 8 -2 0 -6 -4
-9 -8z"/>
<path d="M1290 1550 c0 -5 5 -10 11 -10 5 0 7 5 4 10 -3 6 -8 10 -11 10 -2 0
-4 -4 -4 -10z"/>
<path d="M1335 1550 c3 -5 8 -10 11 -10 2 0 4 5 4 10 0 6 -5 10 -11 10 -5 0
-7 -4 -4 -10z"/>
<path d="M1370 1549 c0 -5 5 -7 10 -4 6 3 10 8 10 11 0 2 -4 4 -10 4 -5 0 -10
-5 -10 -11z"/>
<path d="M1416 1548 c3 -4 11 -5 19 -1 21 7 19 12 -4 10 -11 0 -18 -5 -15 -9z"/>
<path d="M5375 1549 c-3 -4 2 -6 10 -5 21 3 28 13 10 13 -9 0 -18 -4 -20 -8z"/>
<path d="M5290 1536 c0 -2 7 -7 16 -10 8 -3 12 -2 9 4 -6 10 -25 14 -25 6z"/>
<path d="M1307 1489 c7 -7 15 -10 18 -7 3 3 -2 9 -12 12 -14 6 -15 5 -6 -5z"/>
</g>
</svg>
